<svg width="409" height="145" viewBox="0 0 409 145" fill="none" xmlns="http://www.w3.org/2000/svg">
<g opacity="0.4">
<rect x="0.5" y="0.5" width="91.1142" height="71.8951" fill="#FFFE92" stroke="black"/>
<path d="M77.2109 4.1875V12.8516C77.2109 13.5026 77.2396 13.9193 77.2969 14.1016C77.3542 14.2786 77.474 14.4245 77.6562 14.5391C77.8385 14.6536 78.1302 14.7109 78.5312 14.7109H78.7734V15H73.1953V14.7109H73.4766C73.9297 14.7109 74.2526 14.6589 74.4453 14.5547C74.638 14.4505 74.7682 14.3073 74.8359 14.125C74.9036 13.9427 74.9375 13.5182 74.9375 12.8516V7.35938C74.9375 6.86979 74.9141 6.5651 74.8672 6.44531C74.8203 6.32031 74.7318 6.21615 74.6016 6.13281C74.4766 6.04427 74.3307 6 74.1641 6C73.8984 6 73.5755 6.08333 73.1953 6.25L73.0547 5.96875L76.9531 4.1875H77.2109ZM82.4375 4.40625H87.3984L86.6094 6.42188H82.4375L82.0391 7.47656C83.8359 7.54427 85.2188 7.99219 86.1875 8.82031C86.9844 9.5026 87.3828 10.3516 87.3828 11.3672C87.3828 12.0182 87.1979 12.6562 86.8281 13.2812C86.4583 13.901 85.9375 14.3802 85.2656 14.7188C84.5938 15.0521 83.8568 15.2188 83.0547 15.2188C82.1901 15.2188 81.526 15.0573 81.0625 14.7344C80.7396 14.5052 80.5781 14.2448 80.5781 13.9531C80.5781 13.7292 80.6615 13.5312 80.8281 13.3594C81 13.1875 81.1979 13.1016 81.4219 13.1016C81.625 13.1016 81.8307 13.1432 82.0391 13.2266C82.2474 13.3099 82.6042 13.5286 83.1094 13.8828C83.4271 14.1016 83.7005 14.2526 83.9297 14.3359C84.0911 14.3984 84.2734 14.4297 84.4766 14.4297C84.9036 14.4297 85.2656 14.2734 85.5625 13.9609C85.8646 13.6484 86.0156 13.2734 86.0156 12.8359C86.0156 11.9193 85.5573 11.1745 84.6406 10.6016C83.724 10.0286 82.5677 9.74219 81.1719 9.74219C81.0312 9.74219 80.8203 9.74479 80.5391 9.75L82.4375 4.40625Z" fill="black"/>
<path d="M62.0078 34.6387C62.1966 34.1927 62.4342 33.8493 62.7207 33.6084C63.0104 33.3643 63.3701 33.2422 63.7998 33.2422C64.3304 33.2422 64.7373 33.4147 65.0205 33.7598C65.2354 34.0169 65.3428 34.292 65.3428 34.585C65.3428 35.0667 65.04 35.5648 64.4346 36.0791C64.8415 36.2386 65.1491 36.4665 65.3574 36.7627C65.5658 37.0589 65.6699 37.4072 65.6699 37.8076C65.6699 38.3805 65.4876 38.877 65.123 39.2969C64.6478 39.8438 63.9593 40.1172 63.0576 40.1172C62.6117 40.1172 62.3073 40.0618 62.1445 39.9512C61.985 39.8405 61.9053 39.7217 61.9053 39.5947C61.9053 39.5003 61.9427 39.4173 62.0176 39.3457C62.0957 39.2741 62.1885 39.2383 62.2959 39.2383C62.3773 39.2383 62.4603 39.2513 62.5449 39.2773C62.6003 39.2936 62.7256 39.3538 62.9209 39.458C63.1162 39.5589 63.2513 39.6191 63.3262 39.6387C63.4466 39.6745 63.5752 39.6924 63.7119 39.6924C64.0439 39.6924 64.332 39.5638 64.5762 39.3066C64.8236 39.0495 64.9473 38.7451 64.9473 38.3936C64.9473 38.1364 64.8903 37.8857 64.7764 37.6416C64.6917 37.4593 64.599 37.321 64.498 37.2266C64.3581 37.0964 64.166 36.9792 63.9219 36.875C63.6777 36.7676 63.4287 36.7139 63.1748 36.7139H63.0186V36.5674C63.2757 36.5348 63.5329 36.4421 63.79 36.2891C64.0505 36.1361 64.2393 35.9521 64.3564 35.7373C64.4736 35.5225 64.5322 35.2865 64.5322 35.0293C64.5322 34.694 64.4264 34.4238 64.2148 34.2188C64.0065 34.0104 63.7461 33.9062 63.4336 33.9062C62.929 33.9062 62.5075 34.1764 62.1689 34.7168L62.0078 34.6387ZM66.8613 36.7285C66.8613 35.9733 66.9753 35.3239 67.2031 34.7803C67.431 34.2334 67.7337 33.8265 68.1113 33.5596C68.4043 33.348 68.707 33.2422 69.0195 33.2422C69.5273 33.2422 69.9831 33.501 70.3867 34.0186C70.8913 34.6598 71.1436 35.529 71.1436 36.626C71.1436 37.3942 71.0329 38.0469 70.8115 38.584C70.5902 39.1211 70.307 39.5117 69.9619 39.7559C69.6201 39.9967 69.2897 40.1172 68.9707 40.1172C68.3392 40.1172 67.8135 39.7445 67.3936 38.999C67.0387 38.3708 66.8613 37.6139 66.8613 36.7285ZM67.8184 36.8506C67.8184 37.762 67.9307 38.5059 68.1553 39.082C68.3408 39.5671 68.6175 39.8096 68.9854 39.8096C69.1611 39.8096 69.3434 39.7314 69.5322 39.5752C69.721 39.4157 69.8643 39.1504 69.9619 38.7793C70.1117 38.2194 70.1865 37.43 70.1865 36.4111C70.1865 35.6559 70.1084 35.026 69.9521 34.5215C69.835 34.1471 69.6836 33.8818 69.498 33.7256C69.3646 33.6182 69.2035 33.5645 69.0146 33.5645C68.7933 33.5645 68.5964 33.6637 68.4238 33.8623C68.1895 34.1325 68.0299 34.5573 67.9453 35.1367C67.8607 35.7161 67.8184 36.2874 67.8184 36.8506ZM72.0371 41.665V41.4502C72.3724 41.3395 72.6312 41.167 72.8135 40.9326C72.999 40.7015 73.0918 40.4557 73.0918 40.1953C73.0918 40.1335 73.0771 40.0814 73.0479 40.0391C73.0251 40.0098 73.0023 39.9951 72.9795 39.9951C72.9437 39.9951 72.8656 40.0277 72.7451 40.0928C72.6865 40.1221 72.6247 40.1367 72.5596 40.1367C72.4001 40.1367 72.2731 40.0895 72.1787 39.9951C72.0843 39.9007 72.0371 39.7705 72.0371 39.6045C72.0371 39.445 72.0973 39.3083 72.2178 39.1943C72.3415 39.0804 72.4912 39.0234 72.667 39.0234C72.8818 39.0234 73.0723 39.1178 73.2383 39.3066C73.4076 39.4922 73.4922 39.7396 73.4922 40.0488C73.4922 40.3841 73.375 40.695 73.1406 40.9814C72.9095 41.2712 72.5417 41.499 72.0371 41.665ZM74.5273 40.1367V39.9561C74.9505 39.9495 75.3444 39.8519 75.709 39.6631C76.0736 39.471 76.4251 39.1374 76.7637 38.6621C77.1055 38.1868 77.3431 37.6644 77.4766 37.0947C76.9655 37.4235 76.5033 37.5879 76.0898 37.5879C75.6243 37.5879 75.2256 37.4089 74.8936 37.0508C74.5615 36.6895 74.3955 36.2109 74.3955 35.6152C74.3955 35.0358 74.5615 34.5199 74.8936 34.0674C75.2939 33.5173 75.8164 33.2422 76.4609 33.2422C77.0046 33.2422 77.4701 33.4668 77.8574 33.916C78.3327 34.4727 78.5703 35.1595 78.5703 35.9766C78.5703 36.7122 78.3896 37.3991 78.0283 38.0371C77.667 38.6719 77.1641 39.1992 76.5195 39.6191C75.9954 39.9642 75.4242 40.1367 74.8057 40.1367H74.5273ZM77.5547 36.7334C77.6133 36.3102 77.6426 35.9717 77.6426 35.7178C77.6426 35.402 77.5889 35.0618 77.4814 34.6973C77.374 34.3294 77.221 34.0479 77.0225 33.8525C76.8271 33.6572 76.6042 33.5596 76.3535 33.5596C76.0638 33.5596 75.8099 33.6898 75.5918 33.9502C75.3737 34.2106 75.2646 34.598 75.2646 35.1123C75.2646 35.7992 75.4095 36.3363 75.6992 36.7236C75.9108 37.0036 76.1712 37.1436 76.4805 37.1436C76.6302 37.1436 76.8076 37.1077 77.0127 37.0361C77.2178 36.9645 77.3984 36.8636 77.5547 36.7334ZM80.0059 33.3789H83.5557V33.5645L81.3486 40.1367H80.8018L82.7793 34.1748H80.958C80.5902 34.1748 80.3281 34.2188 80.1719 34.3066C79.8984 34.4564 79.6787 34.6875 79.5127 35L79.3711 34.9463L80.0059 33.3789ZM88.6533 37.5586V38.252H87.7646V40H86.959V38.252H84.1562V37.627L87.2275 33.2422H87.7646V37.5586H88.6533ZM86.959 37.5586V34.2725L84.6348 37.5586H86.959Z" fill="black"/>
<path d="M9.03857 48.3652L8.77197 48.9463H7.37744L7.07324 49.5684C7.67708 49.6572 8.1556 49.8817 8.50879 50.2417C8.81185 50.5516 8.96338 50.9162 8.96338 51.3354C8.96338 51.5793 8.91325 51.8049 8.81299 52.0122C8.71501 52.2196 8.59082 52.3962 8.44043 52.542C8.29004 52.6878 8.12256 52.8052 7.93799 52.894C7.67594 53.0194 7.40706 53.082 7.13135 53.082C6.85335 53.082 6.65055 53.0353 6.52295 52.9419C6.39762 52.8462 6.33496 52.7414 6.33496 52.6274C6.33496 52.5636 6.36117 52.5078 6.41357 52.46C6.46598 52.4098 6.53206 52.3848 6.61182 52.3848C6.67106 52.3848 6.72233 52.3939 6.76562 52.4121C6.8112 52.4303 6.88753 52.4771 6.99463 52.5522C7.16553 52.6707 7.3387 52.73 7.51416 52.73C7.78076 52.73 8.01432 52.6297 8.21484 52.4292C8.41764 52.2264 8.51904 51.9803 8.51904 51.6909C8.51904 51.4106 8.42904 51.1497 8.24902 50.9082C8.06901 50.6644 7.82064 50.4764 7.50391 50.3442C7.25553 50.2417 6.91715 50.1825 6.48877 50.1665L7.37744 48.3652H9.03857ZM7.34326 58.6655C6.9764 58.3647 6.73942 58.1232 6.63232 57.9409C6.52751 57.7586 6.4751 57.5695 6.4751 57.3735C6.4751 57.0728 6.59131 56.8141 6.82373 56.5977C7.05615 56.3789 7.36491 56.2695 7.75 56.2695C8.1237 56.2695 8.42448 56.3709 8.65234 56.5737C8.88021 56.7765 8.99414 57.0078 8.99414 57.2676C8.99414 57.4408 8.93262 57.6174 8.80957 57.7974C8.68652 57.9774 8.43018 58.1893 8.04053 58.4331C8.44157 58.743 8.70703 58.9868 8.83691 59.1646C9.01009 59.397 9.09668 59.6419 9.09668 59.8994C9.09668 60.2253 8.97249 60.5044 8.72412 60.7368C8.47575 60.967 8.1499 61.082 7.74658 61.082C7.3068 61.082 6.96387 60.9442 6.71777 60.6685C6.52181 60.4474 6.42383 60.2059 6.42383 59.9438C6.42383 59.7388 6.49219 59.536 6.62891 59.3354C6.7679 59.1326 7.00602 58.9093 7.34326 58.6655ZM7.87988 58.2998C8.15332 58.0537 8.3265 57.86 8.39941 57.7188C8.47233 57.5752 8.50879 57.4134 8.50879 57.2334C8.50879 56.9941 8.44157 56.8073 8.30713 56.6729C8.17269 56.5361 7.98926 56.4678 7.75684 56.4678C7.52441 56.4678 7.33529 56.535 7.18945 56.6694C7.04362 56.8039 6.9707 56.9611 6.9707 57.1411C6.9707 57.2596 7.00033 57.3781 7.05957 57.4966C7.12109 57.6151 7.20768 57.7279 7.31934 57.835L7.87988 58.2998ZM7.50391 58.7954C7.31478 58.9549 7.17464 59.1292 7.0835 59.3184C6.99235 59.5052 6.94678 59.708 6.94678 59.9268C6.94678 60.2207 7.02653 60.4565 7.18604 60.6343C7.34782 60.8097 7.5529 60.8975 7.80127 60.8975C8.04736 60.8975 8.24447 60.828 8.39258 60.689C8.54069 60.55 8.61475 60.3813 8.61475 60.1831C8.61475 60.019 8.57145 59.8721 8.48486 59.7422C8.32308 59.5007 7.99609 59.1851 7.50391 58.7954ZM9.20947 68.1079L8.88477 69H6.15039V68.8735C6.95475 68.1398 7.521 67.5405 7.84912 67.0757C8.17725 66.6108 8.34131 66.1859 8.34131 65.8008C8.34131 65.5068 8.2513 65.2653 8.07129 65.0762C7.89128 64.887 7.67594 64.7925 7.42529 64.7925C7.19743 64.7925 6.99235 64.8597 6.81006 64.9941C6.63005 65.1263 6.49674 65.3211 6.41016 65.5786H6.28369C6.34066 65.1571 6.48649 64.8335 6.72119 64.6079C6.95817 64.3823 7.25326 64.2695 7.60645 64.2695C7.98242 64.2695 8.29574 64.3903 8.54639 64.6318C8.79932 64.8734 8.92578 65.1582 8.92578 65.4863C8.92578 65.721 8.87109 65.9557 8.76172 66.1904C8.5931 66.5596 8.31966 66.9504 7.94141 67.3628C7.37402 67.9826 7.01969 68.3563 6.87842 68.4839H8.08838C8.33447 68.4839 8.50651 68.4748 8.60449 68.4565C8.70475 68.4383 8.79476 68.4019 8.87451 68.3472C8.95426 68.2902 9.02376 68.2104 9.08301 68.1079H9.20947Z" fill="black"/>
<path d="M44.59 46.37V45.69H42.72V54.97H44.59V54.29H43.52V46.37H44.59ZM45.3679 45.86V53H46.3179V49.73H50.0779V53H51.0279V45.86H50.0779V48.93H46.3179V45.86H45.3679ZM56.0347 49.92H53.0647C53.078 49.72 53.1214 49.5333 53.1947 49.36C53.268 49.18 53.368 49.0233 53.4947 48.89C53.6214 48.7567 53.7714 48.6533 53.9447 48.58C54.1247 48.5 54.3247 48.46 54.5447 48.46C54.758 48.46 54.9514 48.5 55.1247 48.58C55.3047 48.6533 55.458 48.7567 55.5847 48.89C55.718 49.0167 55.8214 49.17 55.8947 49.35C55.9747 49.53 56.0214 49.72 56.0347 49.92ZM56.8547 51.36H56.0147C55.9414 51.7 55.788 51.9533 55.5547 52.12C55.328 52.2867 55.0347 52.37 54.6747 52.37C54.3947 52.37 54.1514 52.3233 53.9447 52.23C53.738 52.1367 53.568 52.0133 53.4347 51.86C53.3014 51.7 53.2047 51.52 53.1447 51.32C53.0847 51.1133 53.058 50.8967 53.0647 50.67H56.9347C56.948 50.3567 56.918 50.0267 56.8447 49.68C56.778 49.3333 56.6514 49.0133 56.4647 48.72C56.2847 48.4267 56.0414 48.1867 55.7347 48C55.4347 47.8067 55.0547 47.71 54.5947 47.71C54.2414 47.71 53.9147 47.7767 53.6147 47.91C53.3214 48.0433 53.0647 48.23 52.8447 48.47C52.6314 48.71 52.4647 48.9933 52.3447 49.32C52.2247 49.6467 52.1647 50.0067 52.1647 50.4C52.178 50.7933 52.2347 51.1567 52.3347 51.49C52.4414 51.8233 52.598 52.11 52.8047 52.35C53.0114 52.59 53.2647 52.7767 53.5647 52.91C53.8714 53.0433 54.2314 53.11 54.6447 53.11C55.2314 53.11 55.718 52.9633 56.1047 52.67C56.4914 52.3767 56.7414 51.94 56.8547 51.36ZM57.1758 54.29V54.97H59.0458V45.69H57.1758V46.37H58.2458V54.29H57.1758ZM61.9437 48.95V49.67C62.1037 49.65 62.2737 49.64 62.4537 49.64C62.667 49.64 62.8637 49.67 63.0437 49.73C63.2303 49.7833 63.3903 49.87 63.5237 49.99C63.657 50.1033 63.7637 50.2467 63.8437 50.42C63.9237 50.5867 63.9637 50.78 63.9637 51C63.9637 51.2133 63.9203 51.4067 63.8337 51.58C63.7537 51.7467 63.6437 51.89 63.5037 52.01C63.3637 52.1233 63.2003 52.2133 63.0137 52.28C62.827 52.34 62.6303 52.37 62.4237 52.37C61.937 52.37 61.567 52.2267 61.3137 51.94C61.0603 51.6467 60.927 51.27 60.9137 50.81H60.0637C60.057 51.1767 60.107 51.5033 60.2137 51.79C60.327 52.0767 60.487 52.32 60.6937 52.52C60.9003 52.7133 61.1503 52.86 61.4437 52.96C61.737 53.06 62.0637 53.11 62.4237 53.11C62.757 53.11 63.0703 53.0667 63.3637 52.98C63.6637 52.8867 63.9237 52.75 64.1437 52.57C64.3637 52.39 64.537 52.1667 64.6637 51.9C64.797 51.6267 64.8637 51.3133 64.8637 50.96C64.8637 50.5333 64.757 50.1633 64.5437 49.85C64.337 49.5367 64.017 49.3333 63.5837 49.24V49.22C63.8637 49.0933 64.097 48.9067 64.2837 48.66C64.4703 48.4133 64.5637 48.13 64.5637 47.81C64.5637 47.4833 64.507 47.2 64.3937 46.96C64.287 46.72 64.137 46.5233 63.9437 46.37C63.7503 46.2167 63.5203 46.1033 63.2537 46.03C62.9937 45.95 62.7103 45.91 62.4037 45.91C62.0503 45.91 61.737 45.9667 61.4637 46.08C61.197 46.1933 60.9737 46.35 60.7937 46.55C60.6137 46.75 60.4737 46.99 60.3737 47.27C60.2803 47.55 60.227 47.86 60.2137 48.2H61.0637C61.0637 47.9933 61.0903 47.7967 61.1437 47.61C61.197 47.4233 61.277 47.26 61.3837 47.12C61.497 46.98 61.637 46.87 61.8037 46.79C61.977 46.7033 62.177 46.66 62.4037 46.66C62.7637 46.66 63.0637 46.7567 63.3037 46.95C63.5437 47.1367 63.6637 47.42 63.6637 47.8C63.6637 47.9867 63.627 48.1533 63.5537 48.3C63.4803 48.4467 63.3803 48.57 63.2537 48.67C63.1337 48.7633 62.9903 48.8367 62.8237 48.89C62.6637 48.9367 62.4937 48.96 62.3137 48.96H62.1337C62.1003 48.96 62.067 48.96 62.0337 48.96C62.007 48.96 61.977 48.9567 61.9437 48.95ZM66.4803 51.37H65.6303C65.6436 51.69 65.7103 51.9633 65.8303 52.19C65.9503 52.41 66.1103 52.59 66.3103 52.73C66.5103 52.8633 66.7403 52.96 67.0003 53.02C67.2603 53.08 67.5336 53.11 67.8203 53.11C68.0803 53.11 68.3403 53.0833 68.6003 53.03C68.867 52.9833 69.1036 52.8967 69.3103 52.77C69.5236 52.6433 69.6936 52.4767 69.8203 52.27C69.9536 52.0633 70.0203 51.8033 70.0203 51.49C70.0203 51.2433 69.9703 51.0367 69.8703 50.87C69.777 50.7033 69.6503 50.5667 69.4903 50.46C69.337 50.3467 69.157 50.2567 68.9503 50.19C68.7503 50.1233 68.5436 50.0667 68.3303 50.02C68.1303 49.9733 67.9303 49.93 67.7303 49.89C67.5303 49.8433 67.3503 49.79 67.1903 49.73C67.0303 49.6633 66.897 49.5833 66.7903 49.49C66.6903 49.39 66.6403 49.2667 66.6403 49.12C66.6403 48.9867 66.6736 48.88 66.7403 48.8C66.807 48.7133 66.8936 48.6467 67.0003 48.6C67.107 48.5467 67.2236 48.51 67.3503 48.49C67.4836 48.47 67.6136 48.46 67.7403 48.46C67.8803 48.46 68.017 48.4767 68.1503 48.51C68.2903 48.5367 68.417 48.5833 68.5303 48.65C68.6436 48.7167 68.737 48.8067 68.8103 48.92C68.8836 49.0267 68.927 49.1633 68.9403 49.33H69.7903C69.7703 49.0167 69.7036 48.7567 69.5903 48.55C69.477 48.3367 69.3236 48.17 69.1303 48.05C68.9436 47.9233 68.727 47.8367 68.4803 47.79C68.2336 47.7367 67.9636 47.71 67.6703 47.71C67.4436 47.71 67.2136 47.74 66.9803 47.8C66.7536 47.8533 66.547 47.94 66.3603 48.06C66.1803 48.1733 66.0303 48.3233 65.9103 48.51C65.797 48.6967 65.7403 48.92 65.7403 49.18C65.7403 49.5133 65.8236 49.7733 65.9903 49.96C66.157 50.1467 66.3636 50.2933 66.6103 50.4C66.8636 50.5 67.137 50.58 67.4303 50.64C67.7236 50.6933 67.9936 50.7567 68.2403 50.83C68.4936 50.8967 68.7036 50.9867 68.8703 51.1C69.037 51.2133 69.1203 51.38 69.1203 51.6C69.1203 51.76 69.0803 51.8933 69.0003 52C68.9203 52.1 68.817 52.1767 68.6903 52.23C68.5703 52.2833 68.437 52.32 68.2903 52.34C68.1436 52.36 68.0036 52.37 67.8703 52.37C67.697 52.37 67.527 52.3533 67.3603 52.32C67.2003 52.2867 67.0536 52.2333 66.9203 52.16C66.7936 52.08 66.6903 51.9767 66.6103 51.85C66.5303 51.7167 66.487 51.5567 66.4803 51.37ZM70.5403 47.45H71.2203C71.2203 47.19 71.2803 46.96 71.4003 46.76C71.527 46.56 71.7403 46.46 72.0403 46.46C72.2736 46.46 72.4703 46.5233 72.6303 46.65C72.7903 46.7767 72.8703 46.9467 72.8703 47.16C72.8703 47.3067 72.847 47.4367 72.8003 47.55C72.7536 47.6633 72.6803 47.77 72.5803 47.87C72.487 47.9633 72.367 48.0567 72.2203 48.15C72.0736 48.2433 71.9036 48.3467 71.7103 48.46C71.5503 48.5533 71.397 48.65 71.2503 48.75C71.1036 48.85 70.9736 48.9667 70.8603 49.1C70.747 49.2267 70.6536 49.38 70.5803 49.56C70.5136 49.7333 70.4736 49.9467 70.4603 50.2H73.4903V49.65H71.1403C71.167 49.5433 71.2203 49.4467 71.3003 49.36C71.387 49.2733 71.487 49.19 71.6003 49.11C71.7203 49.03 71.8503 48.95 71.9903 48.87C72.137 48.79 72.2803 48.7067 72.4203 48.62C72.5603 48.54 72.697 48.4533 72.8303 48.36C72.9703 48.2667 73.0903 48.1633 73.1903 48.05C73.297 47.9367 73.3836 47.81 73.4503 47.67C73.517 47.5233 73.5503 47.3567 73.5503 47.17C73.5503 46.97 73.5103 46.7933 73.4303 46.64C73.357 46.48 73.2503 46.3467 73.1103 46.24C72.977 46.1333 72.8203 46.0533 72.6403 46C72.4603 45.94 72.2703 45.91 72.0703 45.91C71.6036 45.91 71.2303 46.0533 70.9503 46.34C70.677 46.62 70.5403 46.99 70.5403 47.45ZM75.8304 48.95V49.67C75.9904 49.65 76.1604 49.64 76.3404 49.64C76.5537 49.64 76.7504 49.67 76.9304 49.73C77.1171 49.7833 77.2771 49.87 77.4104 49.99C77.5437 50.1033 77.6504 50.2467 77.7304 50.42C77.8104 50.5867 77.8504 50.78 77.8504 51C77.8504 51.2133 77.8071 51.4067 77.7204 51.58C77.6404 51.7467 77.5304 51.89 77.3904 52.01C77.2504 52.1233 77.0871 52.2133 76.9004 52.28C76.7137 52.34 76.5171 52.37 76.3104 52.37C75.8237 52.37 75.4537 52.2267 75.2004 51.94C74.9471 51.6467 74.8137 51.27 74.8004 50.81H73.9504C73.9437 51.1767 73.9937 51.5033 74.1004 51.79C74.2137 52.0767 74.3737 52.32 74.5804 52.52C74.7871 52.7133 75.0371 52.86 75.3304 52.96C75.6237 53.06 75.9504 53.11 76.3104 53.11C76.6437 53.11 76.9571 53.0667 77.2504 52.98C77.5504 52.8867 77.8104 52.75 78.0304 52.57C78.2504 52.39 78.4237 52.1667 78.5504 51.9C78.6837 51.6267 78.7504 51.3133 78.7504 50.96C78.7504 50.5333 78.6437 50.1633 78.4304 49.85C78.2237 49.5367 77.9037 49.3333 77.4704 49.24V49.22C77.7504 49.0933 77.9837 48.9067 78.1704 48.66C78.3571 48.4133 78.4504 48.13 78.4504 47.81C78.4504 47.4833 78.3937 47.2 78.2804 46.96C78.1737 46.72 78.0237 46.5233 77.8304 46.37C77.6371 46.2167 77.4071 46.1033 77.1404 46.03C76.8804 45.95 76.5971 45.91 76.2904 45.91C75.9371 45.91 75.6237 45.9667 75.3504 46.08C75.0837 46.1933 74.8604 46.35 74.6804 46.55C74.5004 46.75 74.3604 46.99 74.2604 47.27C74.1671 47.55 74.1137 47.86 74.1004 48.2H74.9504C74.9504 47.9933 74.9771 47.7967 75.0304 47.61C75.0837 47.4233 75.1637 47.26 75.2704 47.12C75.3837 46.98 75.5237 46.87 75.6904 46.79C75.8637 46.7033 76.0637 46.66 76.2904 46.66C76.6504 46.66 76.9504 46.7567 77.1904 46.95C77.4304 47.1367 77.5504 47.42 77.5504 47.8C77.5504 47.9867 77.5137 48.1533 77.4404 48.3C77.3671 48.4467 77.2671 48.57 77.1404 48.67C77.0204 48.7633 76.8771 48.8367 76.7104 48.89C76.5504 48.9367 76.3804 48.96 76.2004 48.96H76.0204C75.9871 48.96 75.9537 48.96 75.9204 48.96C75.8937 48.96 75.8637 48.9567 75.8304 48.95ZM79.877 47.83V54.97H80.727V52.31H80.747C80.8404 52.4633 80.9537 52.5933 81.087 52.7C81.227 52.8 81.3737 52.88 81.527 52.94C81.6804 53 81.8337 53.0433 81.987 53.07C82.147 53.0967 82.2904 53.11 82.417 53.11C82.8104 53.11 83.1537 53.04 83.447 52.9C83.747 52.76 83.9937 52.57 84.187 52.33C84.387 52.0833 84.5337 51.7967 84.627 51.47C84.727 51.1433 84.777 50.7967 84.777 50.43C84.777 50.0633 84.727 49.7167 84.627 49.39C84.527 49.0633 84.377 48.7767 84.177 48.53C83.9837 48.2767 83.737 48.0767 83.437 47.93C83.1437 47.7833 82.797 47.71 82.397 47.71C82.037 47.71 81.707 47.7767 81.407 47.91C81.107 48.0367 80.887 48.2433 80.747 48.53H80.727V47.83H79.877ZM83.877 50.37C83.877 50.6233 83.8504 50.87 83.797 51.11C83.7437 51.35 83.657 51.5633 83.537 51.75C83.417 51.9367 83.257 52.0867 83.057 52.2C82.8637 52.3133 82.6204 52.37 82.327 52.37C82.0337 52.37 81.7837 52.3167 81.577 52.21C81.3704 52.0967 81.2004 51.95 81.067 51.77C80.9404 51.59 80.847 51.3833 80.787 51.15C80.727 50.91 80.697 50.6633 80.697 50.41C80.697 50.17 80.7237 49.9333 80.777 49.7C80.837 49.4667 80.9304 49.26 81.057 49.08C81.1837 48.8933 81.347 48.7433 81.547 48.63C81.747 48.5167 81.9904 48.46 82.277 48.46C82.5504 48.46 82.787 48.5133 82.987 48.62C83.1937 48.7267 83.3604 48.87 83.487 49.05C83.6204 49.23 83.717 49.4367 83.777 49.67C83.8437 49.8967 83.877 50.13 83.877 50.37ZM86.4548 47.73V48.23H86.7848C86.9048 48.23 87.0181 48.2433 87.1248 48.27C87.2381 48.2967 87.3381 48.3433 87.4248 48.41C87.5114 48.47 87.5814 48.55 87.6348 48.65C87.6881 48.7433 87.7148 48.86 87.7148 49C87.7148 49.2267 87.6214 49.4033 87.4348 49.53C87.2481 49.6567 87.0281 49.72 86.7748 49.72C86.1748 49.72 85.8681 49.4333 85.8548 48.86H85.1748C85.1748 49.0933 85.2148 49.3 85.2948 49.48C85.3814 49.6533 85.4948 49.8 85.6348 49.92C85.7814 50.0333 85.9514 50.12 86.1448 50.18C86.3448 50.24 86.5548 50.27 86.7748 50.27C86.9881 50.27 87.1914 50.2433 87.3848 50.19C87.5781 50.1367 87.7481 50.0567 87.8948 49.95C88.0481 49.8433 88.1681 49.71 88.2548 49.55C88.3481 49.3833 88.3948 49.19 88.3948 48.97C88.3948 48.7167 88.3248 48.4967 88.1848 48.31C88.0448 48.1233 87.8248 48.0033 87.5248 47.95V47.93C87.7114 47.8567 87.8714 47.7467 88.0048 47.6C88.1381 47.4467 88.2048 47.2733 88.2048 47.08C88.2048 46.8867 88.1681 46.7167 88.0948 46.57C88.0214 46.4233 87.9181 46.3033 87.7848 46.21C87.6581 46.11 87.5048 46.0367 87.3248 45.99C87.1514 45.9367 86.9614 45.91 86.7548 45.91C86.3081 45.91 85.9548 46.0367 85.6948 46.29C85.4414 46.5367 85.3014 46.88 85.2748 47.32H85.9548C85.9548 47.0733 86.0181 46.87 86.1448 46.71C86.2714 46.5433 86.4748 46.46 86.7548 46.46C86.9748 46.46 87.1581 46.5133 87.3048 46.62C87.4514 46.7267 87.5248 46.88 87.5248 47.08C87.5248 47.3133 87.4414 47.48 87.2748 47.58C87.1081 47.68 86.9148 47.73 86.6948 47.73H86.4548Z" fill="black"/>
<path d="M24.2905 29.9053V34.8623C24.2905 35.8291 24.3477 36.4399 24.4619 36.6948C24.585 36.9409 24.7959 37.1387 25.0947 37.2881C25.4023 37.4375 25.9604 37.5122 26.769 37.5122V38H17.6855V37.5122C18.5117 37.5122 19.0698 37.4375 19.3599 37.2881C19.6587 37.1299 19.8652 36.9277 19.9795 36.6816C20.1025 36.4355 20.1641 35.8291 20.1641 34.8623V23.2607C20.1641 22.2939 20.1025 21.6875 19.9795 21.4414C19.8652 21.1865 19.6587 20.9844 19.3599 20.835C19.061 20.6855 18.5029 20.6108 17.6855 20.6108V20.123H25.4771C28.0435 20.123 29.8848 20.5801 31.001 21.4941C32.1172 22.4082 32.6753 23.5508 32.6753 24.9219C32.6753 26.082 32.3149 27.0752 31.5942 27.9014C30.8735 28.7275 29.8804 29.29 28.6147 29.5889C27.7622 29.7998 26.3208 29.9053 24.2905 29.9053ZM24.2905 21.1514V28.877C24.5806 28.8945 24.8003 28.9033 24.9497 28.9033C26.022 28.9033 26.8481 28.5869 27.4282 27.9541C28.0083 27.3125 28.2983 26.3237 28.2983 24.9878C28.2983 23.6606 28.0083 22.6895 27.4282 22.0742C26.8481 21.459 25.9824 21.1514 24.8311 21.1514H24.2905Z" fill="black"/>
</g>
<g opacity="0.4">
<rect x="91.5" y="0.5" width="91.1142" height="71.8951" fill="#FFFE92" stroke="black"/>
<path d="M165.438 4.40625H170.398L169.609 6.42188H165.438L165.039 7.47656C166.836 7.54427 168.219 7.99219 169.188 8.82031C169.984 9.5026 170.383 10.3516 170.383 11.3672C170.383 12.0182 170.198 12.6562 169.828 13.2812C169.458 13.901 168.938 14.3802 168.266 14.7188C167.594 15.0521 166.857 15.2188 166.055 15.2188C165.19 15.2188 164.526 15.0573 164.062 14.7344C163.74 14.5052 163.578 14.2448 163.578 13.9531C163.578 13.7292 163.661 13.5312 163.828 13.3594C164 13.1875 164.198 13.1016 164.422 13.1016C164.625 13.1016 164.831 13.1432 165.039 13.2266C165.247 13.3099 165.604 13.5286 166.109 13.8828C166.427 14.1016 166.701 14.2526 166.93 14.3359C167.091 14.3984 167.273 14.4297 167.477 14.4297C167.904 14.4297 168.266 14.2734 168.562 13.9609C168.865 13.6484 169.016 13.2734 169.016 12.8359C169.016 11.9193 168.557 11.1745 167.641 10.6016C166.724 10.0286 165.568 9.74219 164.172 9.74219C164.031 9.74219 163.82 9.74479 163.539 9.75L165.438 4.40625ZM173.367 9.6875V9.41406C173.961 9.24219 174.372 9.08333 174.602 8.9375C174.831 8.78646 175.029 8.5599 175.195 8.25781C175.362 7.95052 175.445 7.64062 175.445 7.32812C175.445 6.89583 175.286 6.52604 174.969 6.21875C174.656 5.90625 174.266 5.75 173.797 5.75C173.068 5.75 172.448 6.13542 171.938 6.90625L171.648 6.80469C172.023 5.9349 172.503 5.28125 173.086 4.84375C173.674 4.40625 174.328 4.1875 175.047 4.1875C175.781 4.1875 176.385 4.41146 176.859 4.85938C177.339 5.30729 177.578 5.83073 177.578 6.42969C177.578 6.82031 177.466 7.19792 177.242 7.5625C177.023 7.92188 176.677 8.23958 176.203 8.51562C176.812 8.8125 177.276 9.17969 177.594 9.61719C177.917 10.0495 178.078 10.5938 178.078 11.25C178.078 12.3542 177.677 13.2943 176.875 14.0703C176.078 14.8411 175.008 15.2266 173.664 15.2266C172.768 15.2266 172.115 15.0781 171.703 14.7812C171.406 14.5729 171.258 14.3047 171.258 13.9766C171.258 13.737 171.344 13.5339 171.516 13.3672C171.688 13.1953 171.885 13.1094 172.109 13.1094C172.281 13.1094 172.443 13.1458 172.594 13.2188C172.677 13.2604 172.971 13.4896 173.477 13.9062C173.987 14.3177 174.464 14.5234 174.906 14.5234C175.292 14.5234 175.622 14.3724 175.898 14.0703C176.174 13.763 176.312 13.375 176.312 12.9062C176.312 12.1927 176.062 11.5365 175.562 10.9375C175.062 10.3333 174.331 9.91667 173.367 9.6875Z" fill="black"/>
<path d="M143.672 34.0283L145.283 33.2422H145.444V38.833C145.444 39.2041 145.459 39.4352 145.488 39.5264C145.521 39.6175 145.586 39.6875 145.684 39.7363C145.781 39.7852 145.98 39.8128 146.279 39.8193V40H143.789V39.8193C144.102 39.8128 144.303 39.7868 144.395 39.7412C144.486 39.6924 144.549 39.6289 144.585 39.5508C144.621 39.4694 144.639 39.2301 144.639 38.833V35.2588C144.639 34.777 144.622 34.4678 144.59 34.3311C144.567 34.2269 144.525 34.1504 144.463 34.1016C144.404 34.0527 144.333 34.0283 144.248 34.0283C144.128 34.0283 143.96 34.0788 143.745 34.1797L143.672 34.0283ZM152.085 38.7256L151.621 40H147.715V39.8193C148.864 38.7712 149.673 37.915 150.142 37.251C150.61 36.5869 150.845 35.9798 150.845 35.4297C150.845 35.0098 150.716 34.6647 150.459 34.3945C150.202 34.1243 149.894 33.9893 149.536 33.9893C149.211 33.9893 148.918 34.0853 148.657 34.2773C148.4 34.4661 148.21 34.7445 148.086 35.1123H147.905C147.987 34.5101 148.195 34.0479 148.53 33.7256C148.869 33.4033 149.29 33.2422 149.795 33.2422C150.332 33.2422 150.78 33.4147 151.138 33.7598C151.499 34.1048 151.68 34.5117 151.68 34.9805C151.68 35.3158 151.602 35.651 151.445 35.9863C151.204 36.5137 150.814 37.0719 150.273 37.6611C149.463 38.5465 148.957 39.0804 148.755 39.2627H150.483C150.835 39.2627 151.081 39.2497 151.221 39.2236C151.364 39.1976 151.493 39.1455 151.606 39.0674C151.72 38.986 151.82 38.8721 151.904 38.7256H152.085ZM156.982 33.2422V33.4229C156.553 33.4652 156.201 33.5514 155.928 33.6816C155.658 33.8086 155.389 34.0039 155.122 34.2676C154.858 34.5312 154.639 34.8258 154.463 35.1514C154.29 35.4736 154.146 35.8577 154.028 36.3037C154.497 35.9814 154.967 35.8203 155.439 35.8203C155.892 35.8203 156.284 36.0026 156.616 36.3672C156.948 36.7318 157.114 37.2005 157.114 37.7734C157.114 38.3268 156.947 38.8314 156.611 39.2871C156.208 39.8405 155.674 40.1172 155.01 40.1172C154.557 40.1172 154.173 39.9674 153.857 39.668C153.239 39.0853 152.93 38.3301 152.93 37.4023C152.93 36.8099 153.049 36.2467 153.286 35.7129C153.524 35.179 153.862 34.7054 154.302 34.292C154.744 33.8786 155.168 33.6003 155.571 33.457C155.975 33.3138 156.351 33.2422 156.699 33.2422H156.982ZM153.945 36.6602C153.887 37.0996 153.857 37.4544 153.857 37.7246C153.857 38.0371 153.914 38.3773 154.028 38.7451C154.146 39.1097 154.318 39.3994 154.546 39.6143C154.712 39.7673 154.914 39.8438 155.151 39.8438C155.435 39.8438 155.687 39.7103 155.908 39.4434C156.133 39.1764 156.245 38.7956 156.245 38.3008C156.245 37.7441 156.134 37.2624 155.913 36.8555C155.692 36.4486 155.378 36.2451 154.971 36.2451C154.847 36.2451 154.714 36.2712 154.57 36.3232C154.43 36.3753 154.222 36.4876 153.945 36.6602ZM158.037 41.665V41.4502C158.372 41.3395 158.631 41.167 158.813 40.9326C158.999 40.7015 159.092 40.4557 159.092 40.1953C159.092 40.1335 159.077 40.0814 159.048 40.0391C159.025 40.0098 159.002 39.9951 158.979 39.9951C158.944 39.9951 158.866 40.0277 158.745 40.0928C158.687 40.1221 158.625 40.1367 158.56 40.1367C158.4 40.1367 158.273 40.0895 158.179 39.9951C158.084 39.9007 158.037 39.7705 158.037 39.6045C158.037 39.445 158.097 39.3083 158.218 39.1943C158.341 39.0804 158.491 39.0234 158.667 39.0234C158.882 39.0234 159.072 39.1178 159.238 39.3066C159.408 39.4922 159.492 39.7396 159.492 40.0488C159.492 40.3841 159.375 40.695 159.141 40.9814C158.91 41.2712 158.542 41.499 158.037 41.665ZM160.527 40.1367V39.9561C160.951 39.9495 161.344 39.8519 161.709 39.6631C162.074 39.471 162.425 39.1374 162.764 38.6621C163.105 38.1868 163.343 37.6644 163.477 37.0947C162.965 37.4235 162.503 37.5879 162.09 37.5879C161.624 37.5879 161.226 37.4089 160.894 37.0508C160.562 36.6895 160.396 36.2109 160.396 35.6152C160.396 35.0358 160.562 34.5199 160.894 34.0674C161.294 33.5173 161.816 33.2422 162.461 33.2422C163.005 33.2422 163.47 33.4668 163.857 33.916C164.333 34.4727 164.57 35.1595 164.57 35.9766C164.57 36.7122 164.39 37.3991 164.028 38.0371C163.667 38.6719 163.164 39.1992 162.52 39.6191C161.995 39.9642 161.424 40.1367 160.806 40.1367H160.527ZM163.555 36.7334C163.613 36.3102 163.643 35.9717 163.643 35.7178C163.643 35.402 163.589 35.0618 163.481 34.6973C163.374 34.3294 163.221 34.0479 163.022 33.8525C162.827 33.6572 162.604 33.5596 162.354 33.5596C162.064 33.5596 161.81 33.6898 161.592 33.9502C161.374 34.2106 161.265 34.598 161.265 35.1123C161.265 35.7992 161.41 36.3363 161.699 36.7236C161.911 37.0036 162.171 37.1436 162.48 37.1436C162.63 37.1436 162.808 37.1077 163.013 37.0361C163.218 36.9645 163.398 36.8636 163.555 36.7334ZM165.361 36.7285C165.361 35.9733 165.475 35.3239 165.703 34.7803C165.931 34.2334 166.234 33.8265 166.611 33.5596C166.904 33.348 167.207 33.2422 167.52 33.2422C168.027 33.2422 168.483 33.501 168.887 34.0186C169.391 34.6598 169.644 35.529 169.644 36.626C169.644 37.3942 169.533 38.0469 169.312 38.584C169.09 39.1211 168.807 39.5117 168.462 39.7559C168.12 39.9967 167.79 40.1172 167.471 40.1172C166.839 40.1172 166.313 39.7445 165.894 38.999C165.539 38.3708 165.361 37.6139 165.361 36.7285ZM166.318 36.8506C166.318 37.762 166.431 38.5059 166.655 39.082C166.841 39.5671 167.118 39.8096 167.485 39.8096C167.661 39.8096 167.843 39.7314 168.032 39.5752C168.221 39.4157 168.364 39.1504 168.462 38.7793C168.612 38.2194 168.687 37.43 168.687 36.4111C168.687 35.6559 168.608 35.026 168.452 34.5215C168.335 34.1471 168.184 33.8818 167.998 33.7256C167.865 33.6182 167.703 33.5645 167.515 33.5645C167.293 33.5645 167.096 33.6637 166.924 33.8623C166.689 34.1325 166.53 34.5573 166.445 35.1367C166.361 35.7161 166.318 36.2874 166.318 36.8506ZM174.653 37.5586V38.252H173.765V40H172.959V38.252H170.156V37.627L173.228 33.2422H173.765V37.5586H174.653ZM172.959 37.5586V34.2725L170.635 37.5586H172.959ZM179.341 33.3789L178.96 34.209H176.968L176.533 35.0977C177.396 35.2246 178.079 35.5452 178.584 36.0596C179.017 36.5023 179.233 37.0231 179.233 37.6221C179.233 37.9704 179.162 38.2926 179.019 38.5889C178.879 38.8851 178.701 39.1374 178.486 39.3457C178.271 39.554 178.032 39.7217 177.769 39.8486C177.394 40.0277 177.01 40.1172 176.616 40.1172C176.219 40.1172 175.929 40.0505 175.747 39.917C175.568 39.7803 175.479 39.6305 175.479 39.4678C175.479 39.3766 175.516 39.2969 175.591 39.2285C175.666 39.1569 175.76 39.1211 175.874 39.1211C175.959 39.1211 176.032 39.1341 176.094 39.1602C176.159 39.1862 176.268 39.2529 176.421 39.3604C176.665 39.5296 176.912 39.6143 177.163 39.6143C177.544 39.6143 177.878 39.471 178.164 39.1846C178.454 38.8949 178.599 38.5433 178.599 38.1299C178.599 37.7295 178.47 37.3568 178.213 37.0117C177.956 36.6634 177.601 36.3949 177.148 36.2061C176.794 36.0596 176.31 35.9749 175.698 35.9521L176.968 33.3789H179.341Z" fill="black"/>
<path d="M97.7041 32.3652H100.189V32.4951L98.644 37.0957H98.2612L99.6455 32.9224H98.3706C98.1131 32.9224 97.9297 32.9531 97.8203 33.0146C97.6289 33.1195 97.4751 33.2812 97.3589 33.5L97.2598 33.4624L97.7041 32.3652ZM97.8203 40.8198L98.9482 40.2695H99.061V44.1831C99.061 44.4429 99.0713 44.6047 99.0918 44.6685C99.1146 44.7323 99.1602 44.7812 99.2285 44.8154C99.2969 44.8496 99.4359 44.869 99.6455 44.8735V45H97.9023V44.8735C98.1211 44.869 98.2624 44.8507 98.3262 44.8188C98.39 44.7847 98.4344 44.7402 98.4595 44.6855C98.4845 44.6286 98.4971 44.4611 98.4971 44.1831V41.6812C98.4971 41.3439 98.4857 41.1274 98.4629 41.0317C98.4469 40.9588 98.4173 40.9053 98.374 40.8711C98.333 40.8369 98.2829 40.8198 98.2236 40.8198C98.1393 40.8198 98.022 40.8551 97.8716 40.9258L97.8203 40.8198ZM101.843 42.6655C101.476 42.3647 101.239 42.1232 101.132 41.9409C101.028 41.7586 100.975 41.5695 100.975 41.3735C100.975 41.0728 101.091 40.8141 101.324 40.5977C101.556 40.3789 101.865 40.2695 102.25 40.2695C102.624 40.2695 102.924 40.3709 103.152 40.5737C103.38 40.7765 103.494 41.0078 103.494 41.2676C103.494 41.4408 103.433 41.6174 103.31 41.7974C103.187 41.9774 102.93 42.1893 102.541 42.4331C102.942 42.743 103.207 42.9868 103.337 43.1646C103.51 43.397 103.597 43.6419 103.597 43.8994C103.597 44.2253 103.472 44.5044 103.224 44.7368C102.976 44.967 102.65 45.082 102.247 45.082C101.807 45.082 101.464 44.9442 101.218 44.6685C101.022 44.4474 100.924 44.2059 100.924 43.9438C100.924 43.7388 100.992 43.536 101.129 43.3354C101.268 43.1326 101.506 42.9093 101.843 42.6655ZM102.38 42.2998C102.653 42.0537 102.826 41.86 102.899 41.7188C102.972 41.5752 103.009 41.4134 103.009 41.2334C103.009 40.9941 102.942 40.8073 102.807 40.6729C102.673 40.5361 102.489 40.4678 102.257 40.4678C102.024 40.4678 101.835 40.535 101.689 40.6694C101.544 40.8039 101.471 40.9611 101.471 41.1411C101.471 41.2596 101.5 41.3781 101.56 41.4966C101.621 41.6151 101.708 41.7279 101.819 41.835L102.38 42.2998ZM102.004 42.7954C101.815 42.9549 101.675 43.1292 101.583 43.3184C101.492 43.5052 101.447 43.708 101.447 43.9268C101.447 44.2207 101.527 44.4565 101.686 44.6343C101.848 44.8097 102.053 44.8975 102.301 44.8975C102.547 44.8975 102.744 44.828 102.893 44.689C103.041 44.55 103.115 44.3813 103.115 44.1831C103.115 44.019 103.071 43.8721 102.985 43.7422C102.823 43.5007 102.496 43.1851 102.004 42.7954ZM97.8203 48.8198L98.9482 48.2695H99.061V52.1831C99.061 52.4429 99.0713 52.6047 99.0918 52.6685C99.1146 52.7323 99.1602 52.7812 99.2285 52.8154C99.2969 52.8496 99.4359 52.869 99.6455 52.8735V53H97.9023V52.8735C98.1211 52.869 98.2624 52.8507 98.3262 52.8188C98.39 52.7847 98.4344 52.7402 98.4595 52.6855C98.4845 52.6286 98.4971 52.4611 98.4971 52.1831V49.6812C98.4971 49.3439 98.4857 49.1274 98.4629 49.0317C98.4469 48.9588 98.4173 48.9053 98.374 48.8711C98.333 48.8369 98.2829 48.8198 98.2236 48.8198C98.1393 48.8198 98.022 48.8551 97.8716 48.9258L97.8203 48.8198ZM101.843 50.6655C101.476 50.3647 101.239 50.1232 101.132 49.9409C101.028 49.7586 100.975 49.5695 100.975 49.3735C100.975 49.0728 101.091 48.8141 101.324 48.5977C101.556 48.3789 101.865 48.2695 102.25 48.2695C102.624 48.2695 102.924 48.3709 103.152 48.5737C103.38 48.7765 103.494 49.0078 103.494 49.2676C103.494 49.4408 103.433 49.6174 103.31 49.7974C103.187 49.9774 102.93 50.1893 102.541 50.4331C102.942 50.743 103.207 50.9868 103.337 51.1646C103.51 51.397 103.597 51.6419 103.597 51.8994C103.597 52.2253 103.472 52.5044 103.224 52.7368C102.976 52.967 102.65 53.082 102.247 53.082C101.807 53.082 101.464 52.9442 101.218 52.6685C101.022 52.4474 100.924 52.2059 100.924 51.9438C100.924 51.7388 100.992 51.536 101.129 51.3354C101.268 51.1326 101.506 50.9093 101.843 50.6655ZM102.38 50.2998C102.653 50.0537 102.826 49.86 102.899 49.7188C102.972 49.5752 103.009 49.4134 103.009 49.2334C103.009 48.9941 102.942 48.8073 102.807 48.6729C102.673 48.5361 102.489 48.4678 102.257 48.4678C102.024 48.4678 101.835 48.535 101.689 48.6694C101.544 48.8039 101.471 48.9611 101.471 49.1411C101.471 49.2596 101.5 49.3781 101.56 49.4966C101.621 49.6151 101.708 49.7279 101.819 49.835L102.38 50.2998ZM102.004 50.7954C101.815 50.9549 101.675 51.1292 101.583 51.3184C101.492 51.5052 101.447 51.708 101.447 51.9268C101.447 52.2207 101.527 52.4565 101.686 52.6343C101.848 52.8097 102.053 52.8975 102.301 52.8975C102.547 52.8975 102.744 52.828 102.893 52.689C103.041 52.55 103.115 52.3813 103.115 52.1831C103.115 52.019 103.071 51.8721 102.985 51.7422C102.823 51.5007 102.496 51.1851 102.004 50.7954ZM98.3433 58.6655C97.9764 58.3647 97.7394 58.1232 97.6323 57.9409C97.5275 57.7586 97.4751 57.5695 97.4751 57.3735C97.4751 57.0728 97.5913 56.8141 97.8237 56.5977C98.0562 56.3789 98.3649 56.2695 98.75 56.2695C99.1237 56.2695 99.4245 56.3709 99.6523 56.5737C99.8802 56.7765 99.9941 57.0078 99.9941 57.2676C99.9941 57.4408 99.9326 57.6174 99.8096 57.7974C99.6865 57.9774 99.4302 58.1893 99.0405 58.4331C99.4416 58.743 99.707 58.9868 99.8369 59.1646C100.01 59.397 100.097 59.6419 100.097 59.8994C100.097 60.2253 99.9725 60.5044 99.7241 60.7368C99.4757 60.967 99.1499 61.082 98.7466 61.082C98.3068 61.082 97.9639 60.9442 97.7178 60.6685C97.5218 60.4474 97.4238 60.2059 97.4238 59.9438C97.4238 59.7388 97.4922 59.536 97.6289 59.3354C97.7679 59.1326 98.006 58.9093 98.3433 58.6655ZM98.8799 58.2998C99.1533 58.0537 99.3265 57.86 99.3994 57.7188C99.4723 57.5752 99.5088 57.4134 99.5088 57.2334C99.5088 56.9941 99.4416 56.8073 99.3071 56.6729C99.1727 56.5361 98.9893 56.4678 98.7568 56.4678C98.5244 56.4678 98.3353 56.535 98.1895 56.6694C98.0436 56.8039 97.9707 56.9611 97.9707 57.1411C97.9707 57.2596 98.0003 57.3781 98.0596 57.4966C98.1211 57.6151 98.2077 57.7279 98.3193 57.835L98.8799 58.2998ZM98.5039 58.7954C98.3148 58.9549 98.1746 59.1292 98.0835 59.3184C97.9924 59.5052 97.9468 59.708 97.9468 59.9268C97.9468 60.2207 98.0265 60.4565 98.186 60.6343C98.3478 60.8097 98.5529 60.8975 98.8013 60.8975C99.0474 60.8975 99.2445 60.828 99.3926 60.689C99.5407 60.55 99.6147 60.3813 99.6147 60.1831C99.6147 60.019 99.5715 59.8721 99.4849 59.7422C99.3231 59.5007 98.9961 59.1851 98.5039 58.7954ZM100.209 68.1079L99.8848 69H97.1504V68.8735C97.9548 68.1398 98.521 67.5405 98.8491 67.0757C99.1772 66.6108 99.3413 66.1859 99.3413 65.8008C99.3413 65.5068 99.2513 65.2653 99.0713 65.0762C98.8913 64.887 98.6759 64.7925 98.4253 64.7925C98.1974 64.7925 97.9924 64.8597 97.8101 64.9941C97.63 65.1263 97.4967 65.3211 97.4102 65.5786H97.2837C97.3407 65.1571 97.4865 64.8335 97.7212 64.6079C97.9582 64.3823 98.2533 64.2695 98.6064 64.2695C98.9824 64.2695 99.2957 64.3903 99.5464 64.6318C99.7993 64.8734 99.9258 65.1582 99.9258 65.4863C99.9258 65.721 99.8711 65.9557 99.7617 66.1904C99.5931 66.5596 99.3197 66.9504 98.9414 67.3628C98.374 67.9826 98.0197 68.3563 97.8784 68.4839H99.0884C99.3345 68.4839 99.5065 68.4748 99.6045 68.4565C99.7048 68.4383 99.7948 68.4019 99.8745 68.3472C99.9543 68.2902 100.024 68.2104 100.083 68.1079H100.209Z" fill="black"/>
<path d="M119.59 46.37V45.69H117.72V54.97H119.59V54.29H118.52V46.37H119.59ZM120.368 45.86V53H121.318V50.5L122.508 49.39L125.088 53H126.288L123.158 48.74L126.168 45.86H124.938L121.318 49.42V45.86H120.368ZM126.868 47.83V53H127.718V50.7C127.718 50.3667 127.751 50.0733 127.818 49.82C127.884 49.56 127.991 49.34 128.138 49.16C128.284 48.98 128.478 48.8433 128.718 48.75C128.958 48.6567 129.248 48.61 129.588 48.61V47.71C129.128 47.6967 128.748 47.79 128.448 47.99C128.148 48.19 127.894 48.5 127.688 48.92H127.668V47.83H126.868ZM129.588 54.29V54.97H131.458V45.69H129.588V46.37H130.658V54.29H129.588ZM135.566 50.59H133.186L135.546 47.12H135.566V50.59ZM136.366 50.59V45.91H135.686L132.456 50.52V51.34H135.566V53H136.366V51.34H137.326V50.59H136.366ZM138.992 50.46C138.992 50.2067 139.019 49.96 139.072 49.72C139.126 49.48 139.212 49.2667 139.332 49.08C139.452 48.8933 139.612 48.7433 139.812 48.63C140.012 48.5167 140.256 48.46 140.542 48.46C140.836 48.46 141.086 48.5167 141.292 48.63C141.499 48.7367 141.666 48.88 141.792 49.06C141.926 49.24 142.022 49.45 142.082 49.69C142.142 49.9233 142.172 50.1667 142.172 50.42C142.172 50.66 142.142 50.8967 142.082 51.13C142.029 51.3633 141.939 51.5733 141.812 51.76C141.686 51.94 141.522 52.0867 141.322 52.2C141.122 52.3133 140.879 52.37 140.592 52.37C140.319 52.37 140.079 52.3167 139.872 52.21C139.672 52.1033 139.506 51.96 139.372 51.78C139.246 51.6 139.149 51.3967 139.082 51.17C139.022 50.9367 138.992 50.7 138.992 50.46ZM142.992 53V45.86H142.142V48.52H142.122C142.029 48.3667 141.912 48.24 141.772 48.14C141.639 48.0333 141.496 47.95 141.342 47.89C141.189 47.8233 141.036 47.7767 140.882 47.75C140.729 47.7233 140.586 47.71 140.452 47.71C140.059 47.71 139.712 47.7833 139.412 47.93C139.119 48.07 138.872 48.2633 138.672 48.51C138.479 48.75 138.332 49.0333 138.232 49.36C138.139 49.6867 138.092 50.0333 138.092 50.4C138.092 50.7667 138.142 51.1133 138.242 51.44C138.342 51.7667 138.489 52.0533 138.682 52.3C138.882 52.5467 139.129 52.7433 139.422 52.89C139.722 53.0367 140.072 53.11 140.472 53.11C140.832 53.11 141.162 53.0467 141.462 52.92C141.762 52.7933 141.982 52.5867 142.122 52.3H142.142V53H142.992ZM146.15 50.2V45.91H145.65C145.583 46.1833 145.427 46.37 145.18 46.47C144.933 46.57 144.647 46.62 144.32 46.62V47.12H145.47V50.2H146.15ZM148.85 44.71C149.084 44.71 149.294 44.75 149.48 44.83C149.667 44.91 149.824 45.04 149.95 45.22C150.084 45.3933 150.184 45.62 150.25 45.9C150.317 46.18 150.35 46.5167 150.35 46.91C150.35 47.69 150.21 48.2533 149.93 48.6C149.65 48.9467 149.284 49.12 148.83 49.12C148.357 49.12 147.987 48.9533 147.72 48.62C147.46 48.2867 147.33 47.7233 147.33 46.93C147.33 46.1433 147.47 45.5767 147.75 45.23C148.03 44.8833 148.397 44.71 148.85 44.71ZM148.84 45.26C148.587 45.26 148.387 45.3833 148.24 45.63C148.1 45.87 148.03 46.3 148.03 46.92C148.03 47.5267 148.1 47.9533 148.24 48.2C148.387 48.4467 148.587 48.57 148.84 48.57C149.094 48.57 149.29 48.45 149.43 48.21C149.577 47.9633 149.65 47.53 149.65 46.91C149.65 46.3033 149.577 45.8767 149.43 45.63C149.29 45.3833 149.094 45.26 148.84 45.26ZM155.391 46.78V46.03H151.891L151.231 49.71L151.961 49.75C152.128 49.55 152.318 49.39 152.531 49.27C152.751 49.1433 153.001 49.08 153.281 49.08C153.521 49.08 153.738 49.12 153.931 49.2C154.131 49.28 154.301 49.3933 154.441 49.54C154.581 49.68 154.688 49.85 154.761 50.05C154.841 50.2433 154.881 50.4567 154.881 50.69C154.881 50.97 154.841 51.2167 154.761 51.43C154.681 51.6367 154.571 51.81 154.431 51.95C154.298 52.09 154.138 52.1967 153.951 52.27C153.771 52.3367 153.581 52.37 153.381 52.37C153.168 52.37 152.971 52.34 152.791 52.28C152.618 52.2133 152.465 52.1233 152.331 52.01C152.205 51.89 152.101 51.7533 152.021 51.6C151.948 51.44 151.905 51.27 151.891 51.09H151.041C151.048 51.41 151.111 51.6967 151.231 51.95C151.351 52.2033 151.515 52.4167 151.721 52.59C151.928 52.7567 152.165 52.8867 152.431 52.98C152.705 53.0667 152.995 53.11 153.301 53.11C153.715 53.11 154.075 53.0467 154.381 52.92C154.695 52.7867 154.955 52.61 155.161 52.39C155.368 52.17 155.521 51.92 155.621 51.64C155.728 51.3533 155.781 51.06 155.781 50.76C155.781 50.3533 155.721 50 155.601 49.7C155.481 49.3933 155.318 49.14 155.111 48.94C154.905 48.7333 154.661 48.58 154.381 48.48C154.101 48.38 153.805 48.33 153.491 48.33C153.251 48.33 153.008 48.3733 152.761 48.46C152.521 48.54 152.325 48.6667 152.171 48.84L152.151 48.82L152.531 46.78H155.391ZM157.408 51.37H156.558C156.571 51.69 156.638 51.9633 156.758 52.19C156.878 52.41 157.038 52.59 157.238 52.73C157.438 52.8633 157.668 52.96 157.928 53.02C158.188 53.08 158.461 53.11 158.748 53.11C159.008 53.11 159.268 53.0833 159.528 53.03C159.795 52.9833 160.031 52.8967 160.238 52.77C160.451 52.6433 160.621 52.4767 160.748 52.27C160.881 52.0633 160.948 51.8033 160.948 51.49C160.948 51.2433 160.898 51.0367 160.798 50.87C160.705 50.7033 160.578 50.5667 160.418 50.46C160.265 50.3467 160.085 50.2567 159.878 50.19C159.678 50.1233 159.471 50.0667 159.258 50.02C159.058 49.9733 158.858 49.93 158.658 49.89C158.458 49.8433 158.278 49.79 158.118 49.73C157.958 49.6633 157.825 49.5833 157.718 49.49C157.618 49.39 157.568 49.2667 157.568 49.12C157.568 48.9867 157.601 48.88 157.668 48.8C157.735 48.7133 157.821 48.6467 157.928 48.6C158.035 48.5467 158.151 48.51 158.278 48.49C158.411 48.47 158.541 48.46 158.668 48.46C158.808 48.46 158.945 48.4767 159.078 48.51C159.218 48.5367 159.345 48.5833 159.458 48.65C159.571 48.7167 159.665 48.8067 159.738 48.92C159.811 49.0267 159.855 49.1633 159.868 49.33H160.718C160.698 49.0167 160.631 48.7567 160.518 48.55C160.405 48.3367 160.251 48.17 160.058 48.05C159.871 47.9233 159.655 47.8367 159.408 47.79C159.161 47.7367 158.891 47.71 158.598 47.71C158.371 47.71 158.141 47.74 157.908 47.8C157.681 47.8533 157.475 47.94 157.288 48.06C157.108 48.1733 156.958 48.3233 156.838 48.51C156.725 48.6967 156.668 48.92 156.668 49.18C156.668 49.5133 156.751 49.7733 156.918 49.96C157.085 50.1467 157.291 50.2933 157.538 50.4C157.791 50.5 158.065 50.58 158.358 50.64C158.651 50.6933 158.921 50.7567 159.168 50.83C159.421 50.8967 159.631 50.9867 159.798 51.1C159.965 51.2133 160.048 51.38 160.048 51.6C160.048 51.76 160.008 51.8933 159.928 52C159.848 52.1 159.745 52.1767 159.618 52.23C159.498 52.2833 159.365 52.32 159.218 52.34C159.071 52.36 158.931 52.37 158.798 52.37C158.625 52.37 158.455 52.3533 158.288 52.32C158.128 52.2867 157.981 52.2333 157.848 52.16C157.721 52.08 157.618 51.9767 157.538 51.85C157.458 51.7167 157.415 51.5567 157.408 51.37ZM161.468 47.45H162.148C162.148 47.19 162.208 46.96 162.328 46.76C162.455 46.56 162.668 46.46 162.968 46.46C163.201 46.46 163.398 46.5233 163.558 46.65C163.718 46.7767 163.798 46.9467 163.798 47.16C163.798 47.3067 163.775 47.4367 163.728 47.55C163.681 47.6633 163.608 47.77 163.508 47.87C163.415 47.9633 163.295 48.0567 163.148 48.15C163.001 48.2433 162.831 48.3467 162.638 48.46C162.478 48.5533 162.325 48.65 162.178 48.75C162.031 48.85 161.901 48.9667 161.788 49.1C161.675 49.2267 161.581 49.38 161.508 49.56C161.441 49.7333 161.401 49.9467 161.388 50.2H164.418V49.65H162.068C162.095 49.5433 162.148 49.4467 162.228 49.36C162.315 49.2733 162.415 49.19 162.528 49.11C162.648 49.03 162.778 48.95 162.918 48.87C163.065 48.79 163.208 48.7067 163.348 48.62C163.488 48.54 163.625 48.4533 163.758 48.36C163.898 48.2667 164.018 48.1633 164.118 48.05C164.225 47.9367 164.311 47.81 164.378 47.67C164.445 47.5233 164.478 47.3567 164.478 47.17C164.478 46.97 164.438 46.7933 164.358 46.64C164.285 46.48 164.178 46.3467 164.038 46.24C163.905 46.1333 163.748 46.0533 163.568 46C163.388 45.94 163.198 45.91 162.998 45.91C162.531 45.91 162.158 46.0533 161.878 46.34C161.605 46.62 161.468 46.99 161.468 47.45ZM169.278 46.78V46.03H165.778L165.118 49.71L165.848 49.75C166.015 49.55 166.205 49.39 166.418 49.27C166.638 49.1433 166.888 49.08 167.168 49.08C167.408 49.08 167.625 49.12 167.818 49.2C168.018 49.28 168.188 49.3933 168.328 49.54C168.468 49.68 168.575 49.85 168.648 50.05C168.728 50.2433 168.768 50.4567 168.768 50.69C168.768 50.97 168.728 51.2167 168.648 51.43C168.568 51.6367 168.458 51.81 168.318 51.95C168.185 52.09 168.025 52.1967 167.838 52.27C167.658 52.3367 167.468 52.37 167.268 52.37C167.055 52.37 166.858 52.34 166.678 52.28C166.505 52.2133 166.351 52.1233 166.218 52.01C166.091 51.89 165.988 51.7533 165.908 51.6C165.835 51.44 165.791 51.27 165.778 51.09H164.928C164.935 51.41 164.998 51.6967 165.118 51.95C165.238 52.2033 165.401 52.4167 165.608 52.59C165.815 52.7567 166.051 52.8867 166.318 52.98C166.591 53.0667 166.881 53.11 167.188 53.11C167.601 53.11 167.961 53.0467 168.268 52.92C168.581 52.7867 168.841 52.61 169.048 52.39C169.255 52.17 169.408 51.92 169.508 51.64C169.615 51.3533 169.668 51.06 169.668 50.76C169.668 50.3533 169.608 50 169.488 49.7C169.368 49.3933 169.205 49.14 168.998 48.94C168.791 48.7333 168.548 48.58 168.268 48.48C167.988 48.38 167.691 48.33 167.378 48.33C167.138 48.33 166.895 48.3733 166.648 48.46C166.408 48.54 166.211 48.6667 166.058 48.84L166.038 48.82L166.418 46.78H169.278ZM170.805 47.83V54.97H171.655V52.31H171.675C171.768 52.4633 171.881 52.5933 172.015 52.7C172.155 52.8 172.301 52.88 172.455 52.94C172.608 53 172.761 53.0433 172.915 53.07C173.075 53.0967 173.218 53.11 173.345 53.11C173.738 53.11 174.081 53.04 174.375 52.9C174.675 52.76 174.921 52.57 175.115 52.33C175.315 52.0833 175.461 51.7967 175.555 51.47C175.655 51.1433 175.705 50.7967 175.705 50.43C175.705 50.0633 175.655 49.7167 175.555 49.39C175.455 49.0633 175.305 48.7767 175.105 48.53C174.911 48.2767 174.665 48.0767 174.365 47.93C174.071 47.7833 173.725 47.71 173.325 47.71C172.965 47.71 172.635 47.7767 172.335 47.91C172.035 48.0367 171.815 48.2433 171.675 48.53H171.655V47.83H170.805ZM174.805 50.37C174.805 50.6233 174.778 50.87 174.725 51.11C174.671 51.35 174.585 51.5633 174.465 51.75C174.345 51.9367 174.185 52.0867 173.985 52.2C173.791 52.3133 173.548 52.37 173.255 52.37C172.961 52.37 172.711 52.3167 172.505 52.21C172.298 52.0967 172.128 51.95 171.995 51.77C171.868 51.59 171.775 51.3833 171.715 51.15C171.655 50.91 171.625 50.6633 171.625 50.41C171.625 50.17 171.651 49.9333 171.705 49.7C171.765 49.4667 171.858 49.26 171.985 49.08C172.111 48.8933 172.275 48.7433 172.475 48.63C172.675 48.5167 172.918 48.46 173.205 48.46C173.478 48.46 173.715 48.5133 173.915 48.62C174.121 48.7267 174.288 48.87 174.415 49.05C174.548 49.23 174.645 49.4367 174.705 49.67C174.771 49.8967 174.805 50.13 174.805 50.37ZM176.903 44.8H179.153V45.35H177.413L177.173 46.48L177.213 46.49C177.326 46.39 177.453 46.3167 177.593 46.27C177.733 46.2233 177.876 46.2 178.023 46.2C178.469 46.2 178.813 46.3267 179.053 46.58C179.299 46.8267 179.423 47.1633 179.423 47.59C179.423 47.77 179.393 47.95 179.333 48.13C179.273 48.31 179.179 48.4733 179.053 48.62C178.926 48.7667 178.763 48.8867 178.562 48.98C178.369 49.0733 178.139 49.12 177.873 49.12C177.453 49.12 177.103 49.0167 176.823 48.81C176.543 48.5967 176.393 48.2733 176.373 47.84H177.053C177.066 48.0733 177.146 48.2567 177.293 48.39C177.439 48.5167 177.633 48.58 177.873 48.58C178.166 48.58 178.383 48.4933 178.523 48.32C178.669 48.1467 178.743 47.9067 178.743 47.6C178.743 47.3467 178.669 47.1367 178.523 46.97C178.383 46.7967 178.163 46.71 177.863 46.71C177.703 46.71 177.556 46.7467 177.423 46.82C177.289 46.8933 177.183 46.9967 177.103 47.13H176.453L176.903 44.8Z" fill="black"/>
<path d="M117.888 37.5122V38H108.541V37.5122H109.134C109.652 37.5122 110.07 37.4199 110.386 37.2354C110.615 37.1123 110.791 36.9014 110.914 36.6025C111.01 36.3916 111.059 35.8379 111.059 34.9414V23.1816C111.059 22.2676 111.01 21.6963 110.914 21.4678C110.817 21.2393 110.619 21.0415 110.32 20.8745C110.03 20.6987 109.635 20.6108 109.134 20.6108H108.541V20.123H117.888V20.6108H117.294C116.776 20.6108 116.358 20.7031 116.042 20.8877C115.813 21.0107 115.633 21.2217 115.501 21.5205C115.405 21.7314 115.356 22.2852 115.356 23.1816V34.9414C115.356 35.8555 115.405 36.4268 115.501 36.6553C115.607 36.8838 115.805 37.0859 116.095 37.2617C116.394 37.4287 116.793 37.5122 117.294 37.5122H117.888Z" fill="black"/>
</g>
<g opacity="0.4">
<rect x="0.5" y="72.5" width="91.1142" height="71.8951" fill="#FFFE92" stroke="black"/>
<path d="M74.8359 87.2188L77.7188 78.4766H75.5234C74.6641 78.4766 74.0182 78.5885 73.5859 78.8125C73.2839 78.9688 73.0339 79.263 72.8359 79.6953H72.5391L73.3047 76.4062H79.6172L76.0625 87.2188H74.8359Z" fill="black"/>
<path d="M62.6719 106.028L64.2832 105.242H64.4443V110.833C64.4443 111.204 64.459 111.435 64.4883 111.526C64.5208 111.618 64.5859 111.688 64.6836 111.736C64.7812 111.785 64.9798 111.813 65.2793 111.819V112H62.7891V111.819C63.1016 111.813 63.3034 111.787 63.3945 111.741C63.4857 111.692 63.5492 111.629 63.585 111.551C63.6208 111.469 63.6387 111.23 63.6387 110.833V107.259C63.6387 106.777 63.6224 106.468 63.5898 106.331C63.5671 106.227 63.5247 106.15 63.4629 106.102C63.4043 106.053 63.3327 106.028 63.248 106.028C63.1276 106.028 62.96 106.079 62.7451 106.18L62.6719 106.028ZM71.1533 109.559V110.252H70.2646V112H69.459V110.252H66.6562V109.627L69.7275 105.242H70.2646V109.559H71.1533ZM69.459 109.559V106.272L67.1348 109.559H69.459ZM72.0371 113.665V113.45C72.3724 113.34 72.6312 113.167 72.8135 112.933C72.999 112.701 73.0918 112.456 73.0918 112.195C73.0918 112.133 73.0771 112.081 73.0479 112.039C73.0251 112.01 73.0023 111.995 72.9795 111.995C72.9437 111.995 72.8656 112.028 72.7451 112.093C72.6865 112.122 72.6247 112.137 72.5596 112.137C72.4001 112.137 72.2731 112.09 72.1787 111.995C72.0843 111.901 72.0371 111.771 72.0371 111.604C72.0371 111.445 72.0973 111.308 72.2178 111.194C72.3415 111.08 72.4912 111.023 72.667 111.023C72.8818 111.023 73.0723 111.118 73.2383 111.307C73.4076 111.492 73.4922 111.74 73.4922 112.049C73.4922 112.384 73.375 112.695 73.1406 112.981C72.9095 113.271 72.5417 113.499 72.0371 113.665ZM74.3613 108.729C74.3613 107.973 74.4753 107.324 74.7031 106.78C74.931 106.233 75.2337 105.826 75.6113 105.56C75.9043 105.348 76.207 105.242 76.5195 105.242C77.0273 105.242 77.4831 105.501 77.8867 106.019C78.3913 106.66 78.6436 107.529 78.6436 108.626C78.6436 109.394 78.5329 110.047 78.3115 110.584C78.0902 111.121 77.807 111.512 77.4619 111.756C77.1201 111.997 76.7897 112.117 76.4707 112.117C75.8392 112.117 75.3135 111.744 74.8936 110.999C74.5387 110.371 74.3613 109.614 74.3613 108.729ZM75.3184 108.851C75.3184 109.762 75.4307 110.506 75.6553 111.082C75.8408 111.567 76.1175 111.81 76.4854 111.81C76.6611 111.81 76.8434 111.731 77.0322 111.575C77.221 111.416 77.3643 111.15 77.4619 110.779C77.6117 110.219 77.6865 109.43 77.6865 108.411C77.6865 107.656 77.6084 107.026 77.4521 106.521C77.335 106.147 77.1836 105.882 76.998 105.726C76.8646 105.618 76.7035 105.564 76.5146 105.564C76.2933 105.564 76.0964 105.664 75.9238 105.862C75.6895 106.132 75.5299 106.557 75.4453 107.137C75.3607 107.716 75.3184 108.287 75.3184 108.851ZM79.3613 108.729C79.3613 107.973 79.4753 107.324 79.7031 106.78C79.931 106.233 80.2337 105.826 80.6113 105.56C80.9043 105.348 81.207 105.242 81.5195 105.242C82.0273 105.242 82.4831 105.501 82.8867 106.019C83.3913 106.66 83.6436 107.529 83.6436 108.626C83.6436 109.394 83.5329 110.047 83.3115 110.584C83.0902 111.121 82.807 111.512 82.4619 111.756C82.1201 111.997 81.7897 112.117 81.4707 112.117C80.8392 112.117 80.3135 111.744 79.8936 110.999C79.5387 110.371 79.3613 109.614 79.3613 108.729ZM80.3184 108.851C80.3184 109.762 80.4307 110.506 80.6553 111.082C80.8408 111.567 81.1175 111.81 81.4854 111.81C81.6611 111.81 81.8434 111.731 82.0322 111.575C82.221 111.416 82.3643 111.15 82.4619 110.779C82.6117 110.219 82.6865 109.43 82.6865 108.411C82.6865 107.656 82.6084 107.026 82.4521 106.521C82.335 106.147 82.1836 105.882 81.998 105.726C81.8646 105.618 81.7035 105.564 81.5146 105.564C81.2933 105.564 81.0964 105.664 80.9238 105.862C80.6895 106.132 80.5299 106.557 80.4453 107.137C80.3607 107.716 80.3184 108.287 80.3184 108.851ZM85.0059 105.379H88.5557V105.564L86.3486 112.137H85.8018L87.7793 106.175H85.958C85.5902 106.175 85.3281 106.219 85.1719 106.307C84.8984 106.456 84.6787 106.688 84.5127 107L84.3711 106.946L85.0059 105.379Z" fill="black"/>
<path d="M9.20947 140.108L8.88477 141H6.15039V140.874C6.95475 140.14 7.521 139.541 7.84912 139.076C8.17725 138.611 8.34131 138.186 8.34131 137.801C8.34131 137.507 8.2513 137.265 8.07129 137.076C7.89128 136.887 7.67594 136.792 7.42529 136.792C7.19743 136.792 6.99235 136.86 6.81006 136.994C6.63005 137.126 6.49674 137.321 6.41016 137.579H6.28369C6.34066 137.157 6.48649 136.833 6.72119 136.608C6.95817 136.382 7.25326 136.27 7.60645 136.27C7.98242 136.27 8.29574 136.39 8.54639 136.632C8.79932 136.873 8.92578 137.158 8.92578 137.486C8.92578 137.721 8.87109 137.956 8.76172 138.19C8.5931 138.56 8.31966 138.95 7.94141 139.363C7.37402 139.983 7.01969 140.356 6.87842 140.484H8.08838C8.33447 140.484 8.50651 140.475 8.60449 140.457C8.70475 140.438 8.79476 140.402 8.87451 140.347C8.95426 140.29 9.02376 140.21 9.08301 140.108H9.20947Z" fill="black"/>
<path d="M44.59 118.37V117.69H42.72V126.97H44.59V126.29H43.52V118.37H44.59ZM45.3679 117.86V125H46.3179V121.73H50.0779V125H51.0279V117.86H50.0779V120.93H46.3179V117.86H45.3679ZM56.0347 121.92H53.0647C53.078 121.72 53.1214 121.533 53.1947 121.36C53.268 121.18 53.368 121.023 53.4947 120.89C53.6214 120.757 53.7714 120.653 53.9447 120.58C54.1247 120.5 54.3247 120.46 54.5447 120.46C54.758 120.46 54.9514 120.5 55.1247 120.58C55.3047 120.653 55.458 120.757 55.5847 120.89C55.718 121.017 55.8214 121.17 55.8947 121.35C55.9747 121.53 56.0214 121.72 56.0347 121.92ZM56.8547 123.36H56.0147C55.9414 123.7 55.788 123.953 55.5547 124.12C55.328 124.287 55.0347 124.37 54.6747 124.37C54.3947 124.37 54.1514 124.323 53.9447 124.23C53.738 124.137 53.568 124.013 53.4347 123.86C53.3014 123.7 53.2047 123.52 53.1447 123.32C53.0847 123.113 53.058 122.897 53.0647 122.67H56.9347C56.948 122.357 56.918 122.027 56.8447 121.68C56.778 121.333 56.6514 121.013 56.4647 120.72C56.2847 120.427 56.0414 120.187 55.7347 120C55.4347 119.807 55.0547 119.71 54.5947 119.71C54.2414 119.71 53.9147 119.777 53.6147 119.91C53.3214 120.043 53.0647 120.23 52.8447 120.47C52.6314 120.71 52.4647 120.993 52.3447 121.32C52.2247 121.647 52.1647 122.007 52.1647 122.4C52.178 122.793 52.2347 123.157 52.3347 123.49C52.4414 123.823 52.598 124.11 52.8047 124.35C53.0114 124.59 53.2647 124.777 53.5647 124.91C53.8714 125.043 54.2314 125.11 54.6447 125.11C55.2314 125.11 55.718 124.963 56.1047 124.67C56.4914 124.377 56.7414 123.94 56.8547 123.36ZM57.1758 126.29V126.97H59.0458V117.69H57.1758V118.37H58.2458V126.29H57.1758ZM60.2037 120.42H61.0537C61.047 120.207 61.067 119.997 61.1137 119.79C61.167 119.577 61.2503 119.387 61.3637 119.22C61.477 119.053 61.6203 118.92 61.7937 118.82C61.9737 118.713 62.187 118.66 62.4337 118.66C62.6203 118.66 62.797 118.69 62.9637 118.75C63.1303 118.81 63.2737 118.897 63.3937 119.01C63.5203 119.123 63.6203 119.26 63.6937 119.42C63.767 119.573 63.8037 119.747 63.8037 119.94C63.8037 120.187 63.7637 120.403 63.6837 120.59C63.6103 120.777 63.497 120.95 63.3437 121.11C63.197 121.27 63.0103 121.43 62.7837 121.59C62.557 121.743 62.2937 121.913 61.9937 122.1C61.747 122.247 61.5103 122.403 61.2837 122.57C61.057 122.737 60.8537 122.93 60.6737 123.15C60.4937 123.37 60.3437 123.63 60.2237 123.93C60.1103 124.223 60.037 124.58 60.0037 125H64.6337V124.25H60.9937C61.0337 124.03 61.117 123.837 61.2437 123.67C61.377 123.497 61.5337 123.337 61.7137 123.19C61.9003 123.043 62.1037 122.907 62.3237 122.78C62.5437 122.647 62.7637 122.513 62.9837 122.38C63.2037 122.24 63.417 122.093 63.6237 121.94C63.8303 121.787 64.0137 121.617 64.1737 121.43C64.3337 121.237 64.4603 121.02 64.5537 120.78C64.6537 120.54 64.7037 120.263 64.7037 119.95C64.7037 119.617 64.6437 119.323 64.5237 119.07C64.4103 118.817 64.2537 118.607 64.0537 118.44C63.8537 118.267 63.617 118.137 63.3437 118.05C63.077 117.957 62.7903 117.91 62.4837 117.91C62.1103 117.91 61.777 117.973 61.4837 118.1C61.1903 118.227 60.9437 118.403 60.7437 118.63C60.5503 118.85 60.407 119.113 60.3137 119.42C60.2203 119.727 60.1837 120.06 60.2037 120.42ZM66.4803 123.37H65.6303C65.6436 123.69 65.7103 123.963 65.8303 124.19C65.9503 124.41 66.1103 124.59 66.3103 124.73C66.5103 124.863 66.7403 124.96 67.0003 125.02C67.2603 125.08 67.5336 125.11 67.8203 125.11C68.0803 125.11 68.3403 125.083 68.6003 125.03C68.867 124.983 69.1036 124.897 69.3103 124.77C69.5236 124.643 69.6936 124.477 69.8203 124.27C69.9536 124.063 70.0203 123.803 70.0203 123.49C70.0203 123.243 69.9703 123.037 69.8703 122.87C69.777 122.703 69.6503 122.567 69.4903 122.46C69.337 122.347 69.157 122.257 68.9503 122.19C68.7503 122.123 68.5436 122.067 68.3303 122.02C68.1303 121.973 67.9303 121.93 67.7303 121.89C67.5303 121.843 67.3503 121.79 67.1903 121.73C67.0303 121.663 66.897 121.583 66.7903 121.49C66.6903 121.39 66.6403 121.267 66.6403 121.12C66.6403 120.987 66.6736 120.88 66.7403 120.8C66.807 120.713 66.8936 120.647 67.0003 120.6C67.107 120.547 67.2236 120.51 67.3503 120.49C67.4836 120.47 67.6136 120.46 67.7403 120.46C67.8803 120.46 68.017 120.477 68.1503 120.51C68.2903 120.537 68.417 120.583 68.5303 120.65C68.6436 120.717 68.737 120.807 68.8103 120.92C68.8836 121.027 68.927 121.163 68.9403 121.33H69.7903C69.7703 121.017 69.7036 120.757 69.5903 120.55C69.477 120.337 69.3236 120.17 69.1303 120.05C68.9436 119.923 68.727 119.837 68.4803 119.79C68.2336 119.737 67.9636 119.71 67.6703 119.71C67.4436 119.71 67.2136 119.74 66.9803 119.8C66.7536 119.853 66.547 119.94 66.3603 120.06C66.1803 120.173 66.0303 120.323 65.9103 120.51C65.797 120.697 65.7403 120.92 65.7403 121.18C65.7403 121.513 65.8236 121.773 65.9903 121.96C66.157 122.147 66.3636 122.293 66.6103 122.4C66.8636 122.5 67.137 122.58 67.4303 122.64C67.7236 122.693 67.9936 122.757 68.2403 122.83C68.4936 122.897 68.7036 122.987 68.8703 123.1C69.037 123.213 69.1203 123.38 69.1203 123.6C69.1203 123.76 69.0803 123.893 69.0003 124C68.9203 124.1 68.817 124.177 68.6903 124.23C68.5703 124.283 68.437 124.32 68.2903 124.34C68.1436 124.36 68.0036 124.37 67.8703 124.37C67.697 124.37 67.527 124.353 67.3603 124.32C67.2003 124.287 67.0536 124.233 66.9203 124.16C66.7936 124.08 66.6903 123.977 66.6103 123.85C66.5303 123.717 66.487 123.557 66.4803 123.37ZM70.5403 119.45H71.2203C71.2203 119.19 71.2803 118.96 71.4003 118.76C71.527 118.56 71.7403 118.46 72.0403 118.46C72.2736 118.46 72.4703 118.523 72.6303 118.65C72.7903 118.777 72.8703 118.947 72.8703 119.16C72.8703 119.307 72.847 119.437 72.8003 119.55C72.7536 119.663 72.6803 119.77 72.5803 119.87C72.487 119.963 72.367 120.057 72.2203 120.15C72.0736 120.243 71.9036 120.347 71.7103 120.46C71.5503 120.553 71.397 120.65 71.2503 120.75C71.1036 120.85 70.9736 120.967 70.8603 121.1C70.747 121.227 70.6536 121.38 70.5803 121.56C70.5136 121.733 70.4736 121.947 70.4603 122.2H73.4903V121.65H71.1403C71.167 121.543 71.2203 121.447 71.3003 121.36C71.387 121.273 71.487 121.19 71.6003 121.11C71.7203 121.03 71.8503 120.95 71.9903 120.87C72.137 120.79 72.2803 120.707 72.4203 120.62C72.5603 120.54 72.697 120.453 72.8303 120.36C72.9703 120.267 73.0903 120.163 73.1903 120.05C73.297 119.937 73.3836 119.81 73.4503 119.67C73.517 119.523 73.5503 119.357 73.5503 119.17C73.5503 118.97 73.5103 118.793 73.4303 118.64C73.357 118.48 73.2503 118.347 73.1103 118.24C72.977 118.133 72.8203 118.053 72.6403 118C72.4603 117.94 72.2703 117.91 72.0703 117.91C71.6036 117.91 71.2303 118.053 70.9503 118.34C70.677 118.62 70.5403 118.99 70.5403 119.45ZM74.0904 120.42H74.9404C74.9337 120.207 74.9537 119.997 75.0004 119.79C75.0537 119.577 75.1371 119.387 75.2504 119.22C75.3637 119.053 75.5071 118.92 75.6804 118.82C75.8604 118.713 76.0737 118.66 76.3204 118.66C76.5071 118.66 76.6837 118.69 76.8504 118.75C77.0171 118.81 77.1604 118.897 77.2804 119.01C77.4071 119.123 77.5071 119.26 77.5804 119.42C77.6537 119.573 77.6904 119.747 77.6904 119.94C77.6904 120.187 77.6504 120.403 77.5704 120.59C77.4971 120.777 77.3837 120.95 77.2304 121.11C77.0837 121.27 76.8971 121.43 76.6704 121.59C76.4437 121.743 76.1804 121.913 75.8804 122.1C75.6337 122.247 75.3971 122.403 75.1704 122.57C74.9437 122.737 74.7404 122.93 74.5604 123.15C74.3804 123.37 74.2304 123.63 74.1104 123.93C73.9971 124.223 73.9237 124.58 73.8904 125H78.5204V124.25H74.8804C74.9204 124.03 75.0037 123.837 75.1304 123.67C75.2637 123.497 75.4204 123.337 75.6004 123.19C75.7871 123.043 75.9904 122.907 76.2104 122.78C76.4304 122.647 76.6504 122.513 76.8704 122.38C77.0904 122.24 77.3037 122.093 77.5104 121.94C77.7171 121.787 77.9004 121.617 78.0604 121.43C78.2204 121.237 78.3471 121.02 78.4404 120.78C78.5404 120.54 78.5904 120.263 78.5904 119.95C78.5904 119.617 78.5304 119.323 78.4104 119.07C78.2971 118.817 78.1404 118.607 77.9404 118.44C77.7404 118.267 77.5037 118.137 77.2304 118.05C76.9637 117.957 76.6771 117.91 76.3704 117.91C75.9971 117.91 75.6637 117.973 75.3704 118.1C75.0771 118.227 74.8304 118.403 74.6304 118.63C74.4371 118.85 74.2937 119.113 74.2004 119.42C74.1071 119.727 74.0704 120.06 74.0904 120.42ZM79.877 119.83V126.97H80.727V124.31H80.747C80.8404 124.463 80.9537 124.593 81.087 124.7C81.227 124.8 81.3737 124.88 81.527 124.94C81.6804 125 81.8337 125.043 81.987 125.07C82.147 125.097 82.2904 125.11 82.417 125.11C82.8104 125.11 83.1537 125.04 83.447 124.9C83.747 124.76 83.9937 124.57 84.187 124.33C84.387 124.083 84.5337 123.797 84.627 123.47C84.727 123.143 84.777 122.797 84.777 122.43C84.777 122.063 84.727 121.717 84.627 121.39C84.527 121.063 84.377 120.777 84.177 120.53C83.9837 120.277 83.737 120.077 83.437 119.93C83.1437 119.783 82.797 119.71 82.397 119.71C82.037 119.71 81.707 119.777 81.407 119.91C81.107 120.037 80.887 120.243 80.747 120.53H80.727V119.83H79.877ZM83.877 122.37C83.877 122.623 83.8504 122.87 83.797 123.11C83.7437 123.35 83.657 123.563 83.537 123.75C83.417 123.937 83.257 124.087 83.057 124.2C82.8637 124.313 82.6204 124.37 82.327 124.37C82.0337 124.37 81.7837 124.317 81.577 124.21C81.3704 124.097 81.2004 123.95 81.067 123.77C80.9404 123.59 80.847 123.383 80.787 123.15C80.727 122.91 80.697 122.663 80.697 122.41C80.697 122.17 80.7237 121.933 80.777 121.7C80.837 121.467 80.9304 121.26 81.057 121.08C81.1837 120.893 81.347 120.743 81.547 120.63C81.747 120.517 81.9904 120.46 82.277 120.46C82.5504 120.46 82.787 120.513 82.987 120.62C83.1937 120.727 83.3604 120.87 83.487 121.05C83.6204 121.23 83.717 121.437 83.777 121.67C83.8437 121.897 83.877 122.13 83.877 122.37ZM86.4548 119.73V120.23H86.7848C86.9048 120.23 87.0181 120.243 87.1248 120.27C87.2381 120.297 87.3381 120.343 87.4248 120.41C87.5114 120.47 87.5814 120.55 87.6348 120.65C87.6881 120.743 87.7148 120.86 87.7148 121C87.7148 121.227 87.6214 121.403 87.4348 121.53C87.2481 121.657 87.0281 121.72 86.7748 121.72C86.1748 121.72 85.8681 121.433 85.8548 120.86H85.1748C85.1748 121.093 85.2148 121.3 85.2948 121.48C85.3814 121.653 85.4948 121.8 85.6348 121.92C85.7814 122.033 85.9514 122.12 86.1448 122.18C86.3448 122.24 86.5548 122.27 86.7748 122.27C86.9881 122.27 87.1914 122.243 87.3848 122.19C87.5781 122.137 87.7481 122.057 87.8948 121.95C88.0481 121.843 88.1681 121.71 88.2548 121.55C88.3481 121.383 88.3948 121.19 88.3948 120.97C88.3948 120.717 88.3248 120.497 88.1848 120.31C88.0448 120.123 87.8248 120.003 87.5248 119.95V119.93C87.7114 119.857 87.8714 119.747 88.0048 119.6C88.1381 119.447 88.2048 119.273 88.2048 119.08C88.2048 118.887 88.1681 118.717 88.0948 118.57C88.0214 118.423 87.9181 118.303 87.7848 118.21C87.6581 118.11 87.5048 118.037 87.3248 117.99C87.1514 117.937 86.9614 117.91 86.7548 117.91C86.3081 117.91 85.9548 118.037 85.6948 118.29C85.4414 118.537 85.3014 118.88 85.2748 119.32H85.9548C85.9548 119.073 86.0181 118.87 86.1448 118.71C86.2714 118.543 86.4748 118.46 86.7548 118.46C86.9748 118.46 87.1581 118.513 87.3048 118.62C87.4514 118.727 87.5248 118.88 87.5248 119.08C87.5248 119.313 87.4414 119.48 87.2748 119.58C87.1081 119.68 86.9148 119.73 86.6948 119.73H86.4548Z" fill="black"/>
<path d="M23.7236 92.123L32.5435 103.21V95.5244C32.5435 94.4521 32.3896 93.7271 32.082 93.3491C31.6602 92.8394 30.9526 92.5933 29.9595 92.6108V92.123H35.8657V92.6108C35.1099 92.7075 34.6001 92.835 34.3364 92.9932C34.0815 93.1426 33.8794 93.3931 33.73 93.7446C33.5894 94.0874 33.519 94.6807 33.519 95.5244V110.409H33.0708L20.9814 95.5244V106.889C20.9814 107.917 21.2144 108.611 21.6802 108.972C22.1548 109.332 22.6953 109.512 23.3018 109.512H23.7236V110H17.3823V109.512C18.3667 109.503 19.0522 109.301 19.439 108.906C19.8257 108.51 20.019 107.838 20.019 106.889V94.272L19.6367 93.7974C19.2588 93.3228 18.9248 93.0107 18.6348 92.8613C18.3447 92.7119 17.9272 92.6284 17.3823 92.6108V92.123H23.7236Z" fill="black"/>
</g>
<path d="M294.354 55.4487C301.565 56.645 305.171 59.7725 305.171 64.8311H305.889C308.453 61.9941 313.272 60.0801 320.347 59.0889C320.347 57.6191 318.177 56.8843 313.836 56.8843V56.1665C314.93 56.1665 315.904 55.9272 316.758 55.4487C324.449 55.4487 328.294 60.7466 328.294 71.3423V83.5957C328.294 87.6973 329.012 90.5854 330.447 92.2603H321.783C321.783 91.9868 322.74 90.7905 324.654 88.6714C324.654 87.8853 322.979 86.9111 319.629 85.749C319.151 84.9287 318.912 83.9717 318.912 82.8779V64.8311C318.433 63.3955 316.98 62.6777 314.554 62.6777C311.785 62.6777 308.897 64.3525 305.889 67.7021V83.5957C305.889 87.6973 306.624 90.5854 308.094 92.2603H299.429C299.429 91.9868 300.386 90.7905 302.3 88.6714C302.3 87.8853 300.625 86.9111 297.276 85.749C296.797 84.9287 296.558 83.9717 296.558 82.8779V64.8311C296.045 63.3955 294.593 62.6777 292.2 62.6777C285.945 63.7031 282.818 66.8306 282.818 72.0601C282.339 79.2036 282.1 84.0059 282.1 86.4668C280.186 86.4668 279.229 86.9624 279.229 87.9536V89.3892C279.229 90.3462 279.947 90.8247 281.382 90.8247V92.2603H272C273.914 90.2437 274.871 87.834 274.871 85.0312V65.5488L274.153 64.1133H274.871C274.29 61.1055 273.333 58.6958 272 56.8843H274.871C277.298 56.8843 279.708 58.5762 282.1 61.96C282.1 63.874 282.579 64.8311 283.536 64.8311C286.099 61.9941 290.918 60.0801 297.994 59.0889C297.994 57.6191 295.823 56.8843 291.482 56.8843V56.1665C292.576 56.1665 293.533 55.9272 294.354 55.4487ZM357.107 56.9355H357.825C360.97 56.9355 362.867 60.7466 363.516 68.3687V89.7993L365.669 92.6704H364.952C363.858 92.6704 361.961 90.5342 359.261 86.2617C357.825 86.2617 357.107 85.5439 357.107 84.1084C350.853 86.9795 346.563 88.415 344.239 88.415C343.316 87.9365 342.598 87.6973 342.085 87.6973L341.368 89.0815V89.7993C341.368 91.2349 342.325 91.9526 344.239 91.9526V92.6704H342.803C337.608 92.6704 334.515 88.8594 333.523 81.2373V80.5195C336.053 74.8115 343.196 71.9575 354.954 71.9575L356.39 69.8042V66.9844C355.604 65.0703 353.929 64.1133 351.365 64.1133H348.545C346.597 64.1133 343.487 65.2925 339.214 67.6509H338.548C337.864 67.6509 337.146 66.9502 336.395 65.5488V61.96C336.395 61.2764 337.112 60.5586 338.548 59.8066C338.548 60.3193 338.77 61.0371 339.214 61.96L344.239 61.2422H354.236C355.296 61.2422 356.253 61.4814 357.107 61.96C357.928 61.4814 358.885 61.2422 359.979 61.2422V60.5244L357.107 56.9355ZM340.65 81.2373C341.607 82.7754 342.085 83.9717 342.085 84.8262H348.545C353.775 84.8262 356.39 81.9722 356.39 76.2642C355.911 75.3413 355.672 74.6235 355.672 74.1108C346.272 75.3071 341.265 77.6826 340.65 81.2373ZM391.971 55.2949C399.729 55.2949 403.609 60.627 403.609 71.291V83.6982C403.609 87.7998 404.344 90.7051 405.813 92.4141H397.046L399.969 88.7739C399.969 87.9878 398.277 87.0137 394.893 85.8516C394.415 84.9971 394.175 84.0229 394.175 82.9292V64.7798C393.663 63.3101 392.193 62.5752 389.766 62.5752C383.477 63.6006 380.333 66.7622 380.333 72.0601C379.854 79.2378 379.615 84.0742 379.615 86.5693C377.667 86.5693 376.692 87.0649 376.692 88.0562V89.4917C376.692 90.4829 377.427 90.9785 378.897 90.9785V92.4141H369.412C371.36 90.3975 372.334 87.9707 372.334 85.1338V65.4976L371.617 64.0107H372.334C371.719 61.0029 370.745 58.5762 369.412 56.7305H372.334C374.761 56.7305 377.188 58.4395 379.615 61.8574C379.615 63.8057 380.093 64.7798 381.05 64.7798C383.648 61.9087 388.501 59.9604 395.611 58.9351C395.611 57.4653 393.423 56.7305 389.048 56.7305V56.0127C390.142 56.0127 391.116 55.7734 391.971 55.2949Z" fill="black"/>
<path d="M78.5112 111.538H77.7422L76.2041 110.769V111.538C74.8369 111.538 73.7944 109.709 73.0767 106.052C73.5894 105.129 73.8457 104.086 73.8457 102.924H73.0767C73.0767 102.412 73.333 102.155 73.8457 102.155L73.0767 94.311V59.0376C73.0767 57.6362 72.5469 56.0811 71.4873 54.3721H73.8457C75.623 57.4141 77.708 59.7554 80.1006 61.396V63.7544C81.4678 63.7544 85.125 61.9258 91.0723 58.2686H91.8413L101.275 62.2163V61.396L102.044 59.8579C106.727 61.1909 109.068 63.5322 109.068 66.8818V68.4712H104.402V70.0093L109.888 70.8296V72.3677L109.068 73.957L107.53 73.1367C106.47 73.1367 105.94 73.6665 105.94 74.7261V78.6226H108.299V79.4429C106.351 82.5532 105.052 84.1084 104.402 84.1084C104.402 83.5957 104.129 83.3394 103.582 83.3394C103.582 87.5093 100.198 89.5942 93.4307 89.5942C89.4316 89.5942 86.0308 88.0391 83.228 84.9287C82.2368 85.4414 81.4507 85.6978 80.8696 85.6978V95.8491C80.8696 98.481 79.3145 100.583 76.2041 102.155L75.3838 103.693C75.9307 105.915 77.5029 108.273 80.1006 110.769L78.5112 111.538ZM99.6855 70.8296C98.626 65.0874 95.7549 62.2163 91.0723 62.2163C84.2705 64.814 80.8696 68.4541 80.8696 73.1367V74.7261C80.8696 80.9468 84.7832 84.604 92.6104 85.6978C97.3271 84.6382 99.6855 80.7246 99.6855 73.957V70.8296ZM118.194 40.9907H119.629C120.313 40.9907 121.031 41.7085 121.783 43.144V44.5796C121.783 45.5366 121.304 46.0151 120.347 46.0151H118.194C117.852 46.0151 117.134 45.2974 116.041 43.8618C116.758 41.9478 117.476 40.9907 118.194 40.9907ZM119.629 55.3462C122.022 55.9614 123.218 56.6792 123.218 57.4995C123.218 59.8921 122.5 61.0884 121.065 61.0884V62.5239H122.5V88.415C122.5 89.7139 122.979 91.1494 123.936 92.7217H116.758L115.323 92.0039L116.041 90.5684V76.2129C116.041 69.6504 116.758 65.5659 118.194 63.9595V61.8062C118.194 60.6782 116.519 59.4819 113.169 58.2173C113.169 57.2261 115.323 56.269 119.629 55.3462ZM149.52 55.2949C157.278 55.2949 161.158 60.627 161.158 71.291V83.6982C161.158 87.7998 161.893 90.7051 163.362 92.4141H154.595L157.518 88.7739C157.518 87.9878 155.826 87.0137 152.442 85.8516C151.963 84.9971 151.724 84.0229 151.724 82.9292V64.7798C151.211 63.3101 149.742 62.5752 147.315 62.5752C141.026 63.6006 137.881 66.7622 137.881 72.0601C137.403 79.2378 137.164 84.0742 137.164 86.5693C135.215 86.5693 134.241 87.0649 134.241 88.0562V89.4917C134.241 90.4829 134.976 90.9785 136.446 90.9785V92.4141H126.961C128.909 90.3975 129.883 87.9707 129.883 85.1338V65.4976L129.166 64.0107H129.883C129.268 61.0029 128.294 58.5762 126.961 56.7305H129.883C132.31 56.7305 134.737 58.4395 137.164 61.8574C137.164 63.8057 137.642 64.7798 138.599 64.7798C141.197 61.9087 146.05 59.9604 153.16 58.9351C153.16 57.4653 150.972 56.7305 146.597 56.7305V56.0127C147.691 56.0127 148.665 55.7734 149.52 55.2949Z" fill="black"/>
<rect x="172.5" y="30.5" width="91.1142" height="71.8951" fill="#E071B0" stroke="black"/>
<path d="M249.211 34.1875V42.8516C249.211 43.5026 249.24 43.9193 249.297 44.1016C249.354 44.2786 249.474 44.4245 249.656 44.5391C249.839 44.6536 250.13 44.7109 250.531 44.7109H250.773V45H245.195V44.7109H245.477C245.93 44.7109 246.253 44.6589 246.445 44.5547C246.638 44.4505 246.768 44.3073 246.836 44.125C246.904 43.9427 246.938 43.5182 246.938 42.8516V37.3594C246.938 36.8698 246.914 36.5651 246.867 36.4453C246.82 36.3203 246.732 36.2161 246.602 36.1328C246.477 36.0443 246.331 36 246.164 36C245.898 36 245.576 36.0833 245.195 36.25L245.055 35.9688L248.953 34.1875H249.211ZM252.492 45.2188V45C253.357 44.8021 254.089 44.5104 254.688 44.125C255.292 43.7396 255.768 43.263 256.117 42.6953C256.471 42.1276 256.719 41.474 256.859 40.7344C256.536 40.901 256.26 41.0182 256.031 41.0859C255.807 41.1484 255.57 41.1797 255.32 41.1797C254.518 41.1797 253.849 40.8906 253.312 40.3125C252.781 39.7344 252.516 38.9427 252.516 37.9375C252.516 37.2396 252.659 36.6016 252.945 36.0234C253.237 35.4401 253.651 34.9896 254.188 34.6719C254.724 34.349 255.281 34.1875 255.859 34.1875C256.479 34.1875 257.065 34.3646 257.617 34.7188C258.169 35.0729 258.609 35.5859 258.938 36.2578C259.266 36.9297 259.43 37.6953 259.43 38.5547C259.43 39.6693 259.161 40.737 258.625 41.7578C258.094 42.7786 257.299 43.599 256.242 44.2188C255.185 44.8333 253.935 45.1667 252.492 45.2188ZM256.977 40.0781C257.029 39.4948 257.055 38.9818 257.055 38.5391C257.055 37.5911 256.945 36.7083 256.727 35.8906C256.602 35.4375 256.417 35.1042 256.172 34.8906C256.042 34.776 255.872 34.7188 255.664 34.7188C255.404 34.7188 255.201 34.8307 255.055 35.0547C254.852 35.362 254.75 35.9479 254.75 36.8125C254.75 38.2552 254.922 39.25 255.266 39.7969C255.49 40.151 255.792 40.3281 256.172 40.3281C256.375 40.3281 256.643 40.2448 256.977 40.0781Z" fill="black"/>
<path d="M228.508 64.6387C228.697 64.1927 228.934 63.8493 229.221 63.6084C229.51 63.3643 229.87 63.2422 230.3 63.2422C230.83 63.2422 231.237 63.4147 231.521 63.7598C231.735 64.0169 231.843 64.292 231.843 64.585C231.843 65.0667 231.54 65.5648 230.935 66.0791C231.341 66.2386 231.649 66.4665 231.857 66.7627C232.066 67.0589 232.17 67.4072 232.17 67.8076C232.17 68.3805 231.988 68.877 231.623 69.2969C231.148 69.8438 230.459 70.1172 229.558 70.1172C229.112 70.1172 228.807 70.0618 228.645 69.9512C228.485 69.8405 228.405 69.7217 228.405 69.5947C228.405 69.5003 228.443 69.4173 228.518 69.3457C228.596 69.2741 228.688 69.2383 228.796 69.2383C228.877 69.2383 228.96 69.2513 229.045 69.2773C229.1 69.2936 229.226 69.3538 229.421 69.458C229.616 69.5589 229.751 69.6191 229.826 69.6387C229.947 69.6745 230.075 69.6924 230.212 69.6924C230.544 69.6924 230.832 69.5638 231.076 69.3066C231.324 69.0495 231.447 68.7451 231.447 68.3936C231.447 68.1364 231.39 67.8857 231.276 67.6416C231.192 67.4593 231.099 67.321 230.998 67.2266C230.858 67.0964 230.666 66.9792 230.422 66.875C230.178 66.7676 229.929 66.7139 229.675 66.7139H229.519V66.5674C229.776 66.5348 230.033 66.4421 230.29 66.2891C230.55 66.1361 230.739 65.9521 230.856 65.7373C230.974 65.5225 231.032 65.2865 231.032 65.0293C231.032 64.694 230.926 64.4238 230.715 64.2188C230.507 64.0104 230.246 63.9062 229.934 63.9062C229.429 63.9062 229.007 64.1764 228.669 64.7168L228.508 64.6387ZM233.527 70.1367V69.9561C233.951 69.9495 234.344 69.8519 234.709 69.6631C235.074 69.471 235.425 69.1374 235.764 68.6621C236.105 68.1868 236.343 67.6644 236.477 67.0947C235.965 67.4235 235.503 67.5879 235.09 67.5879C234.624 67.5879 234.226 67.4089 233.894 67.0508C233.562 66.6895 233.396 66.2109 233.396 65.6152C233.396 65.0358 233.562 64.5199 233.894 64.0674C234.294 63.5173 234.816 63.2422 235.461 63.2422C236.005 63.2422 236.47 63.4668 236.857 63.916C237.333 64.4727 237.57 65.1595 237.57 65.9766C237.57 66.7122 237.39 67.3991 237.028 68.0371C236.667 68.6719 236.164 69.1992 235.52 69.6191C234.995 69.9642 234.424 70.1367 233.806 70.1367H233.527ZM236.555 66.7334C236.613 66.3102 236.643 65.9717 236.643 65.7178C236.643 65.402 236.589 65.0618 236.481 64.6973C236.374 64.3294 236.221 64.0479 236.022 63.8525C235.827 63.6572 235.604 63.5596 235.354 63.5596C235.064 63.5596 234.81 63.6898 234.592 63.9502C234.374 64.2106 234.265 64.598 234.265 65.1123C234.265 65.7992 234.41 66.3363 234.699 66.7236C234.911 67.0036 235.171 67.1436 235.48 67.1436C235.63 67.1436 235.808 67.1077 236.013 67.0361C236.218 66.9645 236.398 66.8636 236.555 66.7334ZM238.537 71.665V71.4502C238.872 71.3395 239.131 71.167 239.313 70.9326C239.499 70.7015 239.592 70.4557 239.592 70.1953C239.592 70.1335 239.577 70.0814 239.548 70.0391C239.525 70.0098 239.502 69.9951 239.479 69.9951C239.444 69.9951 239.366 70.0277 239.245 70.0928C239.187 70.1221 239.125 70.1367 239.06 70.1367C238.9 70.1367 238.773 70.0895 238.679 69.9951C238.584 69.9007 238.537 69.7705 238.537 69.6045C238.537 69.445 238.597 69.3083 238.718 69.1943C238.841 69.0804 238.991 69.0234 239.167 69.0234C239.382 69.0234 239.572 69.1178 239.738 69.3066C239.908 69.4922 239.992 69.7396 239.992 70.0488C239.992 70.3841 239.875 70.695 239.641 70.9814C239.41 71.2712 239.042 71.499 238.537 71.665ZM240.861 66.7285C240.861 65.9733 240.975 65.3239 241.203 64.7803C241.431 64.2334 241.734 63.8265 242.111 63.5596C242.404 63.348 242.707 63.2422 243.02 63.2422C243.527 63.2422 243.983 63.501 244.387 64.0186C244.891 64.6598 245.144 65.529 245.144 66.626C245.144 67.3942 245.033 68.0469 244.812 68.584C244.59 69.1211 244.307 69.5117 243.962 69.7559C243.62 69.9967 243.29 70.1172 242.971 70.1172C242.339 70.1172 241.813 69.7445 241.394 68.999C241.039 68.3708 240.861 67.6139 240.861 66.7285ZM241.818 66.8506C241.818 67.762 241.931 68.5059 242.155 69.082C242.341 69.5671 242.618 69.8096 242.985 69.8096C243.161 69.8096 243.343 69.7314 243.532 69.5752C243.721 69.4157 243.864 69.1504 243.962 68.7793C244.112 68.2194 244.187 67.43 244.187 66.4111C244.187 65.6559 244.108 65.026 243.952 64.5215C243.835 64.1471 243.684 63.8818 243.498 63.7256C243.365 63.6182 243.203 63.5645 243.015 63.5645C242.793 63.5645 242.596 63.6637 242.424 63.8623C242.189 64.1325 242.03 64.5573 241.945 65.1367C241.861 65.7161 241.818 66.2874 241.818 66.8506ZM246.027 70.1367V69.9561C246.451 69.9495 246.844 69.8519 247.209 69.6631C247.574 69.471 247.925 69.1374 248.264 68.6621C248.605 68.1868 248.843 67.6644 248.977 67.0947C248.465 67.4235 248.003 67.5879 247.59 67.5879C247.124 67.5879 246.726 67.4089 246.394 67.0508C246.062 66.6895 245.896 66.2109 245.896 65.6152C245.896 65.0358 246.062 64.5199 246.394 64.0674C246.794 63.5173 247.316 63.2422 247.961 63.2422C248.505 63.2422 248.97 63.4668 249.357 63.916C249.833 64.4727 250.07 65.1595 250.07 65.9766C250.07 66.7122 249.89 67.3991 249.528 68.0371C249.167 68.6719 248.664 69.1992 248.02 69.6191C247.495 69.9642 246.924 70.1367 246.306 70.1367H246.027ZM249.055 66.7334C249.113 66.3102 249.143 65.9717 249.143 65.7178C249.143 65.402 249.089 65.0618 248.981 64.6973C248.874 64.3294 248.721 64.0479 248.522 63.8525C248.327 63.6572 248.104 63.5596 247.854 63.5596C247.564 63.5596 247.31 63.6898 247.092 63.9502C246.874 64.2106 246.765 64.598 246.765 65.1123C246.765 65.7992 246.91 66.3363 247.199 66.7236C247.411 67.0036 247.671 67.1436 247.98 67.1436C248.13 67.1436 248.308 67.1077 248.513 67.0361C248.718 66.9645 248.898 66.8636 249.055 66.7334ZM252.419 66.665C251.895 66.2354 251.556 65.8903 251.403 65.6299C251.254 65.3695 251.179 65.0993 251.179 64.8193C251.179 64.3896 251.345 64.0202 251.677 63.7109C252.009 63.3984 252.45 63.2422 253 63.2422C253.534 63.2422 253.964 63.387 254.289 63.6768C254.615 63.9665 254.777 64.2969 254.777 64.668C254.777 64.9154 254.689 65.1676 254.514 65.4248C254.338 65.682 253.972 65.9847 253.415 66.333C253.988 66.7757 254.367 67.124 254.553 67.3779C254.8 67.71 254.924 68.0599 254.924 68.4277C254.924 68.8932 254.746 69.292 254.392 69.624C254.037 69.9528 253.571 70.1172 252.995 70.1172C252.367 70.1172 251.877 69.9202 251.525 69.5264C251.245 69.2106 251.105 68.8656 251.105 68.4912C251.105 68.1982 251.203 67.9085 251.398 67.6221C251.597 67.3324 251.937 67.0133 252.419 66.665ZM253.186 66.1426C253.576 65.791 253.824 65.5143 253.928 65.3125C254.032 65.1074 254.084 64.8763 254.084 64.6191C254.084 64.2773 253.988 64.0104 253.796 63.8184C253.604 63.623 253.342 63.5254 253.01 63.5254C252.678 63.5254 252.408 63.6214 252.199 63.8135C251.991 64.0055 251.887 64.2301 251.887 64.4873C251.887 64.6566 251.929 64.8258 252.014 64.9951C252.102 65.1644 252.225 65.3255 252.385 65.4785L253.186 66.1426ZM252.648 66.8506C252.378 67.0785 252.178 67.3275 252.048 67.5977C251.918 67.8646 251.853 68.1543 251.853 68.4668C251.853 68.8867 251.966 69.2236 252.194 69.4775C252.425 69.7282 252.718 69.8535 253.073 69.8535C253.425 69.8535 253.706 69.7542 253.918 69.5557C254.13 69.3571 254.235 69.1162 254.235 68.833C254.235 68.5986 254.174 68.3887 254.05 68.2031C253.819 67.8581 253.352 67.4072 252.648 66.8506ZM256.008 64.6387C256.197 64.1927 256.434 63.8493 256.721 63.6084C257.01 63.3643 257.37 63.2422 257.8 63.2422C258.33 63.2422 258.737 63.4147 259.021 63.7598C259.235 64.0169 259.343 64.292 259.343 64.585C259.343 65.0667 259.04 65.5648 258.435 66.0791C258.841 66.2386 259.149 66.4665 259.357 66.7627C259.566 67.0589 259.67 67.4072 259.67 67.8076C259.67 68.3805 259.488 68.877 259.123 69.2969C258.648 69.8438 257.959 70.1172 257.058 70.1172C256.612 70.1172 256.307 70.0618 256.145 69.9512C255.985 69.8405 255.905 69.7217 255.905 69.5947C255.905 69.5003 255.943 69.4173 256.018 69.3457C256.096 69.2741 256.188 69.2383 256.296 69.2383C256.377 69.2383 256.46 69.2513 256.545 69.2773C256.6 69.2936 256.726 69.3538 256.921 69.458C257.116 69.5589 257.251 69.6191 257.326 69.6387C257.447 69.6745 257.575 69.6924 257.712 69.6924C258.044 69.6924 258.332 69.5638 258.576 69.3066C258.824 69.0495 258.947 68.7451 258.947 68.3936C258.947 68.1364 258.89 67.8857 258.776 67.6416C258.692 67.4593 258.599 67.321 258.498 67.2266C258.358 67.0964 258.166 66.9792 257.922 66.875C257.678 66.7676 257.429 66.7139 257.175 66.7139H257.019V66.5674C257.276 66.5348 257.533 66.4421 257.79 66.2891C258.05 66.1361 258.239 65.9521 258.356 65.7373C258.474 65.5225 258.532 65.2865 258.532 65.0293C258.532 64.694 258.426 64.4238 258.215 64.2188C258.007 64.0104 257.746 63.9062 257.434 63.9062C256.929 63.9062 256.507 64.1764 256.169 64.7168L256.008 64.6387Z" fill="black"/>
<path d="M178.82 70.8198L179.948 70.2695H180.061V74.1831C180.061 74.4429 180.071 74.6047 180.092 74.6685C180.115 74.7323 180.16 74.7812 180.229 74.8154C180.297 74.8496 180.436 74.869 180.646 74.8735V75H178.902V74.8735C179.121 74.869 179.262 74.8507 179.326 74.8188C179.39 74.7847 179.434 74.7402 179.459 74.6855C179.485 74.6286 179.497 74.4611 179.497 74.1831V71.6812C179.497 71.3439 179.486 71.1274 179.463 71.0317C179.447 70.9588 179.417 70.9053 179.374 70.8711C179.333 70.8369 179.283 70.8198 179.224 70.8198C179.139 70.8198 179.022 70.8551 178.872 70.9258L178.82 70.8198ZM179.343 80.6655C178.976 80.3647 178.739 80.1232 178.632 79.9409C178.528 79.7586 178.475 79.5695 178.475 79.3735C178.475 79.0728 178.591 78.8141 178.824 78.5977C179.056 78.3789 179.365 78.2695 179.75 78.2695C180.124 78.2695 180.424 78.3709 180.652 78.5737C180.88 78.7765 180.994 79.0078 180.994 79.2676C180.994 79.4408 180.933 79.6174 180.81 79.7974C180.687 79.9774 180.43 80.1893 180.041 80.4331C180.442 80.743 180.707 80.9868 180.837 81.1646C181.01 81.397 181.097 81.6419 181.097 81.8994C181.097 82.2253 180.972 82.5044 180.724 82.7368C180.476 82.967 180.15 83.082 179.747 83.082C179.307 83.082 178.964 82.9442 178.718 82.6685C178.522 82.4474 178.424 82.2059 178.424 81.9438C178.424 81.7388 178.492 81.536 178.629 81.3354C178.768 81.1326 179.006 80.9093 179.343 80.6655ZM179.88 80.2998C180.153 80.0537 180.326 79.86 180.399 79.7188C180.472 79.5752 180.509 79.4134 180.509 79.2334C180.509 78.9941 180.442 78.8073 180.307 78.6729C180.173 78.5361 179.989 78.4678 179.757 78.4678C179.524 78.4678 179.335 78.535 179.189 78.6694C179.044 78.8039 178.971 78.9611 178.971 79.1411C178.971 79.2596 179 79.3781 179.06 79.4966C179.121 79.6151 179.208 79.7279 179.319 79.835L179.88 80.2998ZM179.504 80.7954C179.315 80.9549 179.175 81.1292 179.083 81.3184C178.992 81.5052 178.947 81.708 178.947 81.9268C178.947 82.2207 179.027 82.4565 179.186 82.6343C179.348 82.8097 179.553 82.8975 179.801 82.8975C180.047 82.8975 180.244 82.828 180.393 82.689C180.541 82.55 180.615 82.3813 180.615 82.1831C180.615 82.019 180.571 81.8721 180.485 81.7422C180.323 81.5007 179.996 81.1851 179.504 80.7954ZM179.343 88.6655C178.976 88.3647 178.739 88.1232 178.632 87.9409C178.528 87.7586 178.475 87.5695 178.475 87.3735C178.475 87.0728 178.591 86.8141 178.824 86.5977C179.056 86.3789 179.365 86.2695 179.75 86.2695C180.124 86.2695 180.424 86.3709 180.652 86.5737C180.88 86.7765 180.994 87.0078 180.994 87.2676C180.994 87.4408 180.933 87.6174 180.81 87.7974C180.687 87.9774 180.43 88.1893 180.041 88.4331C180.442 88.743 180.707 88.9868 180.837 89.1646C181.01 89.397 181.097 89.6419 181.097 89.8994C181.097 90.2253 180.972 90.5044 180.724 90.7368C180.476 90.967 180.15 91.082 179.747 91.082C179.307 91.082 178.964 90.9442 178.718 90.6685C178.522 90.4474 178.424 90.2059 178.424 89.9438C178.424 89.7388 178.492 89.536 178.629 89.3354C178.768 89.1326 179.006 88.9093 179.343 88.6655ZM179.88 88.2998C180.153 88.0537 180.326 87.86 180.399 87.7188C180.472 87.5752 180.509 87.4134 180.509 87.2334C180.509 86.9941 180.442 86.8073 180.307 86.6729C180.173 86.5361 179.989 86.4678 179.757 86.4678C179.524 86.4678 179.335 86.535 179.189 86.6694C179.044 86.8039 178.971 86.9611 178.971 87.1411C178.971 87.2596 179 87.3781 179.06 87.4966C179.121 87.6151 179.208 87.7279 179.319 87.835L179.88 88.2998ZM179.504 88.7954C179.315 88.9549 179.175 89.1292 179.083 89.3184C178.992 89.5052 178.947 89.708 178.947 89.9268C178.947 90.2207 179.027 90.4565 179.186 90.6343C179.348 90.8097 179.553 90.8975 179.801 90.8975C180.047 90.8975 180.244 90.828 180.393 90.689C180.541 90.55 180.615 90.3813 180.615 90.1831C180.615 90.019 180.571 89.8721 180.485 89.7422C180.323 89.5007 179.996 89.1851 179.504 88.7954ZM181.209 98.1079L180.885 99H178.15V98.8735C178.955 98.1398 179.521 97.5405 179.849 97.0757C180.177 96.6108 180.341 96.1859 180.341 95.8008C180.341 95.5068 180.251 95.2653 180.071 95.0762C179.891 94.887 179.676 94.7925 179.425 94.7925C179.197 94.7925 178.992 94.8597 178.81 94.9941C178.63 95.1263 178.497 95.3211 178.41 95.5786H178.284C178.341 95.1571 178.486 94.8335 178.721 94.6079C178.958 94.3823 179.253 94.2695 179.606 94.2695C179.982 94.2695 180.296 94.3903 180.546 94.6318C180.799 94.8734 180.926 95.1582 180.926 95.4863C180.926 95.721 180.871 95.9557 180.762 96.1904C180.593 96.5596 180.32 96.9504 179.941 97.3628C179.374 97.9826 179.02 98.3563 178.878 98.4839H180.088C180.334 98.4839 180.507 98.4748 180.604 98.4565C180.705 98.4383 180.795 98.4019 180.875 98.3472C180.954 98.2902 181.024 98.2104 181.083 98.1079H181.209Z" fill="black"/>
<path d="M230.59 76.37V75.69H228.72V84.97H230.59V84.29H229.52V76.37H230.59ZM232.598 80.05L233.808 76.72H233.828L235.018 80.05H232.598ZM233.308 75.86L230.528 83H231.498L232.298 80.85H235.318L236.098 83H237.148L234.358 75.86H233.308ZM237.682 77.83V83H238.532V80.7C238.532 80.3667 238.566 80.0733 238.632 79.82C238.699 79.56 238.806 79.34 238.952 79.16C239.099 78.98 239.292 78.8433 239.532 78.75C239.772 78.6567 240.062 78.61 240.402 78.61V77.71C239.942 77.6967 239.562 77.79 239.262 77.99C238.962 78.19 238.709 78.5 238.502 78.92H238.482V77.83H237.682ZM240.402 84.29V84.97H242.272V75.69H240.402V76.37H241.472V84.29H240.402ZM246.38 80.59H244L246.36 77.12H246.38V80.59ZM247.18 80.59V75.91H246.5L243.27 80.52V81.34H246.38V83H247.18V81.34H248.14V80.59H247.18ZM249.707 81.37H248.857C248.87 81.69 248.937 81.9633 249.057 82.19C249.177 82.41 249.337 82.59 249.537 82.73C249.737 82.8633 249.967 82.96 250.227 83.02C250.487 83.08 250.76 83.11 251.047 83.11C251.307 83.11 251.567 83.0833 251.827 83.03C252.094 82.9833 252.33 82.8967 252.537 82.77C252.75 82.6433 252.92 82.4767 253.047 82.27C253.18 82.0633 253.247 81.8033 253.247 81.49C253.247 81.2433 253.197 81.0367 253.097 80.87C253.004 80.7033 252.877 80.5667 252.717 80.46C252.564 80.3467 252.384 80.2567 252.177 80.19C251.977 80.1233 251.77 80.0667 251.557 80.02C251.357 79.9733 251.157 79.93 250.957 79.89C250.757 79.8433 250.577 79.79 250.417 79.73C250.257 79.6633 250.124 79.5833 250.017 79.49C249.917 79.39 249.867 79.2667 249.867 79.12C249.867 78.9867 249.9 78.88 249.967 78.8C250.034 78.7133 250.12 78.6467 250.227 78.6C250.334 78.5467 250.45 78.51 250.577 78.49C250.71 78.47 250.84 78.46 250.967 78.46C251.107 78.46 251.244 78.4767 251.377 78.51C251.517 78.5367 251.644 78.5833 251.757 78.65C251.87 78.7167 251.964 78.8067 252.037 78.92C252.11 79.0267 252.154 79.1633 252.167 79.33H253.017C252.997 79.0167 252.93 78.7567 252.817 78.55C252.704 78.3367 252.55 78.17 252.357 78.05C252.17 77.9233 251.954 77.8367 251.707 77.79C251.46 77.7367 251.19 77.71 250.897 77.71C250.67 77.71 250.44 77.74 250.207 77.8C249.98 77.8533 249.774 77.94 249.587 78.06C249.407 78.1733 249.257 78.3233 249.137 78.51C249.024 78.6967 248.967 78.92 248.967 79.18C248.967 79.5133 249.05 79.7733 249.217 79.96C249.384 80.1467 249.59 80.2933 249.837 80.4C250.09 80.5 250.364 80.58 250.657 80.64C250.95 80.6933 251.22 80.7567 251.467 80.83C251.72 80.8967 251.93 80.9867 252.097 81.1C252.264 81.2133 252.347 81.38 252.347 81.6C252.347 81.76 252.307 81.8933 252.227 82C252.147 82.1 252.044 82.1767 251.917 82.23C251.797 82.2833 251.664 82.32 251.517 82.34C251.37 82.36 251.23 82.37 251.097 82.37C250.924 82.37 250.754 82.3533 250.587 82.32C250.427 82.2867 250.28 82.2333 250.147 82.16C250.02 82.08 249.917 81.9767 249.837 81.85C249.757 81.7167 249.714 81.5567 249.707 81.37ZM256.037 80.2V75.91H255.537C255.47 76.1833 255.314 76.37 255.067 76.47C254.82 76.57 254.534 76.62 254.207 76.62V77.12H255.357V80.2H256.037Z" fill="black"/>
<path d="M200.246 56.9653L206.534 64.8359C207.422 65.9434 208.187 66.6948 208.828 67.0903C209.294 67.3716 209.786 67.5122 210.305 67.5122V68H200.997V67.5122C201.586 67.4595 201.964 67.3672 202.131 67.2354C202.307 67.1035 202.395 66.9409 202.395 66.7476C202.395 66.3784 201.99 65.6841 201.182 64.6646L197.082 59.5098L196.422 60.0635V64.9414C196.422 65.873 196.475 66.4531 196.581 66.6816C196.686 66.9102 196.888 67.1079 197.187 67.2749C197.486 67.4331 197.965 67.5122 198.624 67.5122V68H189.606V67.5122H190.2C190.718 67.5122 191.136 67.4199 191.452 67.2354C191.681 67.1123 191.856 66.9014 191.979 66.6025C192.076 66.3916 192.125 65.8379 192.125 64.9414V53.1816C192.125 52.2676 192.076 51.6963 191.979 51.4678C191.883 51.2393 191.685 51.0415 191.386 50.8745C191.096 50.6987 190.701 50.6108 190.2 50.6108H189.606V50.123H198.505V50.6108C197.899 50.6108 197.438 50.6987 197.121 50.8745C196.893 50.9976 196.712 51.2041 196.581 51.4941C196.475 51.7139 196.422 52.2764 196.422 53.1816V58.7451L203.054 53.3794C203.977 52.6323 204.438 52.0347 204.438 51.5864C204.438 51.2524 204.249 50.9888 203.871 50.7954C203.678 50.6987 203.199 50.6372 202.434 50.6108V50.123H209.408V50.6108C208.784 50.6548 208.292 50.769 207.932 50.9536C207.58 51.1294 206.763 51.7358 205.479 52.7729L200.246 56.9653Z" fill="black"/>
</svg>
